<?xml version="1.0" encoding="utf-8" standalone="no"?>
<!DOCTYPE svg PUBLIC "-//W3C//DTD SVG 1.1//EN"
  "http://www.w3.org/Graphics/SVG/1.1/DTD/svg11.dtd">
<svg xmlns:xlink="http://www.w3.org/1999/xlink" width="395.328125pt" height="155.914375pt" viewBox="0 0 395.328125 155.914375" xmlns="http://www.w3.org/2000/svg" version="1.1">
 <metadata>
  <rdf:RDF xmlns:dc="http://purl.org/dc/elements/1.1/" xmlns:cc="http://creativecommons.org/ns#" xmlns:rdf="http://www.w3.org/1999/02/22-rdf-syntax-ns#">
   <cc:Work>
    <dc:type rdf:resource="http://purl.org/dc/dcmitype/StillImage"/>
    <dc:date>2025-12-16T14:27:28.078863</dc:date>
    <dc:format>image/svg+xml</dc:format>
    <dc:creator>
     <cc:Agent>
      <dc:title>Matplotlib v3.9.4, https://matplotlib.org/</dc:title>
     </cc:Agent>
    </dc:creator>
   </cc:Work>
  </rdf:RDF>
 </metadata>
 <defs>
  <style type="text/css">*{stroke-linejoin: round; stroke-linecap: butt}</style>
 </defs>
 <g id="figure_1">
  <g id="patch_1">
   <path d="M 0 155.914375 
L 395.328125 155.914375 
L 395.328125 0 
L 0 0 
z
" style="fill: #ffffff"/>
  </g>
  <g id="axes_1">
   <g id="patch_2">
    <path d="M 20.878125 118.08 
L 355.678125 118.08 
L 355.678125 7.2 
L 20.878125 7.2 
z
" style="fill: #ffffff"/>
   </g>
   <g id="patch_3">
    <path d="M 36.096307 118.08 
L 42.712908 118.08 
L 42.712908 117.4752 
L 36.096307 117.4752 
z
" clip-path="url(#p90b20ea848)" style="fill: #add8e6; fill-opacity: 0.75; stroke: #000000; stroke-width: 0.66166; stroke-linejoin: miter"/>
   </g>
   <g id="patch_4">
    <path d="M 42.712908 118.08 
L 49.329508 118.08 
L 49.329508 115.056 
L 42.712908 115.056 
z
" clip-path="url(#p90b20ea848)" style="fill: #add8e6; fill-opacity: 0.75; stroke: #000000; stroke-width: 0.66166; stroke-linejoin: miter"/>
   </g>
   <g id="patch_5">
    <path d="M 49.329508 118.08 
L 55.946109 118.08 
L 55.946109 109.4112 
L 49.329508 109.4112 
z
" clip-path="url(#p90b20ea848)" style="fill: #add8e6; fill-opacity: 0.75; stroke: #000000; stroke-width: 0.66166; stroke-linejoin: miter"/>
   </g>
   <g id="patch_6">
    <path d="M 55.946109 118.08 
L 62.56271 118.08 
L 62.56271 102.96 
L 55.946109 102.96 
z
" clip-path="url(#p90b20ea848)" style="fill: #add8e6; fill-opacity: 0.75; stroke: #000000; stroke-width: 0.66166; stroke-linejoin: miter"/>
   </g>
   <g id="patch_7">
    <path d="M 62.56271 118.08 
L 69.179311 118.08 
L 69.179311 100.944 
L 62.56271 100.944 
z
" clip-path="url(#p90b20ea848)" style="fill: #add8e6; fill-opacity: 0.75; stroke: #000000; stroke-width: 0.66166; stroke-linejoin: miter"/>
   </g>
   <g id="patch_8">
    <path d="M 69.179311 118.08 
L 75.795912 118.08 
L 75.795912 92.88 
L 69.179311 92.88 
z
" clip-path="url(#p90b20ea848)" style="fill: #add8e6; fill-opacity: 0.75; stroke: #000000; stroke-width: 0.66166; stroke-linejoin: miter"/>
   </g>
   <g id="patch_9">
    <path d="M 75.795912 118.08 
L 82.412512 118.08 
L 82.412512 86.2272 
L 75.795912 86.2272 
z
" clip-path="url(#p90b20ea848)" style="fill: #add8e6; fill-opacity: 0.75; stroke: #000000; stroke-width: 0.66166; stroke-linejoin: miter"/>
   </g>
   <g id="patch_10">
    <path d="M 82.412512 118.08 
L 89.029113 118.08 
L 89.029113 85.824 
L 82.412512 85.824 
z
" clip-path="url(#p90b20ea848)" style="fill: #add8e6; fill-opacity: 0.75; stroke: #000000; stroke-width: 0.66166; stroke-linejoin: miter"/>
   </g>
   <g id="patch_11">
    <path d="M 89.029113 118.08 
L 95.645714 118.08 
L 95.645714 78.768 
L 89.029113 78.768 
z
" clip-path="url(#p90b20ea848)" style="fill: #add8e6; fill-opacity: 0.75; stroke: #000000; stroke-width: 0.66166; stroke-linejoin: miter"/>
   </g>
   <g id="patch_12">
    <path d="M 95.645714 118.08 
L 102.262315 118.08 
L 102.262315 72.72 
L 95.645714 72.72 
z
" clip-path="url(#p90b20ea848)" style="fill: #add8e6; fill-opacity: 0.75; stroke: #000000; stroke-width: 0.66166; stroke-linejoin: miter"/>
   </g>
   <g id="patch_13">
    <path d="M 102.262315 118.08 
L 108.878916 118.08 
L 108.878916 65.4624 
L 102.262315 65.4624 
z
" clip-path="url(#p90b20ea848)" style="fill: #add8e6; fill-opacity: 0.75; stroke: #000000; stroke-width: 0.66166; stroke-linejoin: miter"/>
   </g>
   <g id="patch_14">
    <path d="M 108.878916 118.08 
L 115.495516 118.08 
L 115.495516 58.8096 
L 108.878916 58.8096 
z
" clip-path="url(#p90b20ea848)" style="fill: #add8e6; fill-opacity: 0.75; stroke: #000000; stroke-width: 0.66166; stroke-linejoin: miter"/>
   </g>
   <g id="patch_15">
    <path d="M 115.495516 118.08 
L 122.112117 118.08 
L 122.112117 57.6 
L 115.495516 57.6 
z
" clip-path="url(#p90b20ea848)" style="fill: #add8e6; fill-opacity: 0.75; stroke: #000000; stroke-width: 0.66166; stroke-linejoin: miter"/>
   </g>
   <g id="patch_16">
    <path d="M 122.112117 118.08 
L 128.728718 118.08 
L 128.728718 46.7136 
L 122.112117 46.7136 
z
" clip-path="url(#p90b20ea848)" style="fill: #add8e6; fill-opacity: 0.75; stroke: #000000; stroke-width: 0.66166; stroke-linejoin: miter"/>
   </g>
   <g id="patch_17">
    <path d="M 128.728718 118.08 
L 135.345319 118.08 
L 135.345319 50.9472 
L 128.728718 50.9472 
z
" clip-path="url(#p90b20ea848)" style="fill: #add8e6; fill-opacity: 0.75; stroke: #000000; stroke-width: 0.66166; stroke-linejoin: miter"/>
   </g>
   <g id="patch_18">
    <path d="M 135.345319 118.08 
L 141.961919 118.08 
L 141.961919 39.8592 
L 135.345319 39.8592 
z
" clip-path="url(#p90b20ea848)" style="fill: #add8e6; fill-opacity: 0.75; stroke: #000000; stroke-width: 0.66166; stroke-linejoin: miter"/>
   </g>
   <g id="patch_19">
    <path d="M 141.961919 118.08 
L 148.57852 118.08 
L 148.57852 38.0448 
L 141.961919 38.0448 
z
" clip-path="url(#p90b20ea848)" style="fill: #add8e6; fill-opacity: 0.75; stroke: #000000; stroke-width: 0.66166; stroke-linejoin: miter"/>
   </g>
   <g id="patch_20">
    <path d="M 148.57852 118.08 
L 155.195121 118.08 
L 155.195121 30.9888 
L 148.57852 30.9888 
z
" clip-path="url(#p90b20ea848)" style="fill: #add8e6; fill-opacity: 0.75; stroke: #000000; stroke-width: 0.66166; stroke-linejoin: miter"/>
   </g>
   <g id="patch_21">
    <path d="M 155.195121 118.08 
L 161.811722 118.08 
L 161.811722 28.368 
L 155.195121 28.368 
z
" clip-path="url(#p90b20ea848)" style="fill: #add8e6; fill-opacity: 0.75; stroke: #000000; stroke-width: 0.66166; stroke-linejoin: miter"/>
   </g>
   <g id="patch_22">
    <path d="M 161.811722 118.08 
L 168.428323 118.08 
L 168.428323 27.36 
L 161.811722 27.36 
z
" clip-path="url(#p90b20ea848)" style="fill: #add8e6; fill-opacity: 0.75; stroke: #000000; stroke-width: 0.66166; stroke-linejoin: miter"/>
   </g>
   <g id="patch_23">
    <path d="M 168.428323 118.08 
L 175.044923 118.08 
L 175.044923 34.6176 
L 168.428323 34.6176 
z
" clip-path="url(#p90b20ea848)" style="fill: #add8e6; fill-opacity: 0.75; stroke: #000000; stroke-width: 0.66166; stroke-linejoin: miter"/>
   </g>
   <g id="patch_24">
    <path d="M 175.044923 118.08 
L 181.661524 118.08 
L 181.661524 31.392 
L 175.044923 31.392 
z
" clip-path="url(#p90b20ea848)" style="fill: #add8e6; fill-opacity: 0.75; stroke: #000000; stroke-width: 0.66166; stroke-linejoin: miter"/>
   </g>
   <g id="patch_25">
    <path d="M 181.661524 118.08 
L 188.278125 118.08 
L 188.278125 33.408 
L 181.661524 33.408 
z
" clip-path="url(#p90b20ea848)" style="fill: #add8e6; fill-opacity: 0.75; stroke: #000000; stroke-width: 0.66166; stroke-linejoin: miter"/>
   </g>
   <g id="patch_26">
    <path d="M 188.278125 118.08 
L 194.894726 118.08 
L 194.894726 34.6176 
L 188.278125 34.6176 
z
" clip-path="url(#p90b20ea848)" style="fill: #add8e6; fill-opacity: 0.75; stroke: #000000; stroke-width: 0.66166; stroke-linejoin: miter"/>
   </g>
   <g id="patch_27">
    <path d="M 194.894726 118.08 
L 201.511327 118.08 
L 201.511327 32.6016 
L 194.894726 32.6016 
z
" clip-path="url(#p90b20ea848)" style="fill: #add8e6; fill-opacity: 0.75; stroke: #000000; stroke-width: 0.66166; stroke-linejoin: miter"/>
   </g>
   <g id="patch_28">
    <path d="M 201.511327 118.08 
L 208.127927 118.08 
L 208.127927 34.6176 
L 201.511327 34.6176 
z
" clip-path="url(#p90b20ea848)" style="fill: #add8e6; fill-opacity: 0.75; stroke: #000000; stroke-width: 0.66166; stroke-linejoin: miter"/>
   </g>
   <g id="patch_29">
    <path d="M 208.127927 118.08 
L 214.744528 118.08 
L 214.744528 31.1904 
L 208.127927 31.1904 
z
" clip-path="url(#p90b20ea848)" style="fill: #add8e6; fill-opacity: 0.75; stroke: #000000; stroke-width: 0.66166; stroke-linejoin: miter"/>
   </g>
   <g id="patch_30">
    <path d="M 214.744528 118.08 
L 221.361129 118.08 
L 221.361129 38.448 
L 214.744528 38.448 
z
" clip-path="url(#p90b20ea848)" style="fill: #add8e6; fill-opacity: 0.75; stroke: #000000; stroke-width: 0.66166; stroke-linejoin: miter"/>
   </g>
   <g id="patch_31">
    <path d="M 221.361129 118.08 
L 227.97773 118.08 
L 227.97773 37.44 
L 221.361129 37.44 
z
" clip-path="url(#p90b20ea848)" style="fill: #add8e6; fill-opacity: 0.75; stroke: #000000; stroke-width: 0.66166; stroke-linejoin: miter"/>
   </g>
   <g id="patch_32">
    <path d="M 227.97773 118.08 
L 234.594331 118.08 
L 234.594331 40.0608 
L 227.97773 40.0608 
z
" clip-path="url(#p90b20ea848)" style="fill: #add8e6; fill-opacity: 0.75; stroke: #000000; stroke-width: 0.66166; stroke-linejoin: miter"/>
   </g>
   <g id="patch_33">
    <path d="M 234.594331 118.08 
L 241.210931 118.08 
L 241.210931 36.8352 
L 234.594331 36.8352 
z
" clip-path="url(#p90b20ea848)" style="fill: #add8e6; fill-opacity: 0.75; stroke: #000000; stroke-width: 0.66166; stroke-linejoin: miter"/>
   </g>
   <g id="patch_34">
    <path d="M 241.210931 118.08 
L 247.827532 118.08 
L 247.827532 49.7376 
L 241.210931 49.7376 
z
" clip-path="url(#p90b20ea848)" style="fill: #add8e6; fill-opacity: 0.75; stroke: #000000; stroke-width: 0.66166; stroke-linejoin: miter"/>
   </g>
   <g id="patch_35">
    <path d="M 247.827532 118.08 
L 254.444133 118.08 
L 254.444133 52.3584 
L 247.827532 52.3584 
z
" clip-path="url(#p90b20ea848)" style="fill: #add8e6; fill-opacity: 0.75; stroke: #000000; stroke-width: 0.66166; stroke-linejoin: miter"/>
   </g>
   <g id="patch_36">
    <path d="M 254.444133 118.08 
L 261.060734 118.08 
L 261.060734 61.632 
L 254.444133 61.632 
z
" clip-path="url(#p90b20ea848)" style="fill: #add8e6; fill-opacity: 0.75; stroke: #000000; stroke-width: 0.66166; stroke-linejoin: miter"/>
   </g>
   <g id="patch_37">
    <path d="M 261.060734 118.08 
L 267.677334 118.08 
L 267.677334 58.0032 
L 261.060734 58.0032 
z
" clip-path="url(#p90b20ea848)" style="fill: #add8e6; fill-opacity: 0.75; stroke: #000000; stroke-width: 0.66166; stroke-linejoin: miter"/>
   </g>
   <g id="patch_38">
    <path d="M 267.677334 118.08 
L 274.293935 118.08 
L 274.293935 64.8576 
L 267.677334 64.8576 
z
" clip-path="url(#p90b20ea848)" style="fill: #add8e6; fill-opacity: 0.75; stroke: #000000; stroke-width: 0.66166; stroke-linejoin: miter"/>
   </g>
   <g id="patch_39">
    <path d="M 274.293935 118.08 
L 280.910536 118.08 
L 280.910536 69.696 
L 274.293935 69.696 
z
" clip-path="url(#p90b20ea848)" style="fill: #add8e6; fill-opacity: 0.75; stroke: #000000; stroke-width: 0.66166; stroke-linejoin: miter"/>
   </g>
   <g id="patch_40">
    <path d="M 280.910536 118.08 
L 287.527137 118.08 
L 287.527137 75.5424 
L 280.910536 75.5424 
z
" clip-path="url(#p90b20ea848)" style="fill: #add8e6; fill-opacity: 0.75; stroke: #000000; stroke-width: 0.66166; stroke-linejoin: miter"/>
   </g>
   <g id="patch_41">
    <path d="M 287.527137 118.08 
L 294.143738 118.08 
L 294.143738 77.76 
L 287.527137 77.76 
z
" clip-path="url(#p90b20ea848)" style="fill: #add8e6; fill-opacity: 0.75; stroke: #000000; stroke-width: 0.66166; stroke-linejoin: miter"/>
   </g>
   <g id="patch_42">
    <path d="M 294.143738 118.08 
L 300.760338 118.08 
L 300.760338 81.9936 
L 294.143738 81.9936 
z
" clip-path="url(#p90b20ea848)" style="fill: #add8e6; fill-opacity: 0.75; stroke: #000000; stroke-width: 0.66166; stroke-linejoin: miter"/>
   </g>
   <g id="patch_43">
    <path d="M 300.760338 118.08 
L 307.376939 118.08 
L 307.376939 85.4208 
L 300.760338 85.4208 
z
" clip-path="url(#p90b20ea848)" style="fill: #add8e6; fill-opacity: 0.75; stroke: #000000; stroke-width: 0.66166; stroke-linejoin: miter"/>
   </g>
   <g id="patch_44">
    <path d="M 307.376939 118.08 
L 313.99354 118.08 
L 313.99354 91.0656 
L 307.376939 91.0656 
z
" clip-path="url(#p90b20ea848)" style="fill: #add8e6; fill-opacity: 0.75; stroke: #000000; stroke-width: 0.66166; stroke-linejoin: miter"/>
   </g>
   <g id="patch_45">
    <path d="M 313.99354 118.08 
L 320.610141 118.08 
L 320.610141 95.2992 
L 313.99354 95.2992 
z
" clip-path="url(#p90b20ea848)" style="fill: #add8e6; fill-opacity: 0.75; stroke: #000000; stroke-width: 0.66166; stroke-linejoin: miter"/>
   </g>
   <g id="patch_46">
    <path d="M 320.610141 118.08 
L 327.226742 118.08 
L 327.226742 95.5008 
L 320.610141 95.5008 
z
" clip-path="url(#p90b20ea848)" style="fill: #add8e6; fill-opacity: 0.75; stroke: #000000; stroke-width: 0.66166; stroke-linejoin: miter"/>
   </g>
   <g id="patch_47">
    <path d="M 327.226742 118.08 
L 333.843342 118.08 
L 333.843342 96.5088 
L 327.226742 96.5088 
z
" clip-path="url(#p90b20ea848)" style="fill: #add8e6; fill-opacity: 0.75; stroke: #000000; stroke-width: 0.66166; stroke-linejoin: miter"/>
   </g>
   <g id="patch_48">
    <path d="M 333.843342 118.08 
L 340.459943 118.08 
L 340.459943 100.5408 
L 333.843342 100.5408 
z
" clip-path="url(#p90b20ea848)" style="fill: #add8e6; fill-opacity: 0.75; stroke: #000000; stroke-width: 0.66166; stroke-linejoin: miter"/>
   </g>
   <g id="matplotlib.axis_1">
    <g id="xtick_1">
     <g id="line2d_1">
      <defs>
       <path id="m4f7de4dc8e" d="M 0 0 
L 0 3.5 
" style="stroke: #000000; stroke-width: 0.8"/>
      </defs>
      <g>
       <use xlink:href="#m4f7de4dc8e" x="29.01027" y="118.08" style="stroke: #000000; stroke-width: 0.8"/>
      </g>
     </g>
     <g id="text_1">
      <!-- 0 -->
      <g transform="translate(25.82902 132.678437) scale(0.1 -0.1)">
       <defs>
        <path id="DejaVuSans-30" d="M 2034 4250 
Q 1547 4250 1301 3770 
Q 1056 3291 1056 2328 
Q 1056 1369 1301 889 
Q 1547 409 2034 409 
Q 2525 409 2770 889 
Q 3016 1369 3016 2328 
Q 3016 3291 2770 3770 
Q 2525 4250 2034 4250 
z
M 2034 4750 
Q 2819 4750 3233 4129 
Q 3647 3509 3647 2328 
Q 3647 1150 3233 529 
Q 2819 -91 2034 -91 
Q 1250 -91 836 529 
Q 422 1150 422 2328 
Q 422 3509 836 4129 
Q 1250 4750 2034 4750 
z
" transform="scale(0.015625)"/>
       </defs>
       <use xlink:href="#DejaVuSans-30"/>
      </g>
     </g>
    </g>
    <g id="xtick_2">
     <g id="line2d_2">
      <g>
       <use xlink:href="#m4f7de4dc8e" x="67.943951" y="118.08" style="stroke: #000000; stroke-width: 0.8"/>
      </g>
     </g>
     <g id="text_2">
      <!-- 1000 -->
      <g transform="translate(55.218951 132.678437) scale(0.1 -0.1)">
       <defs>
        <path id="DejaVuSans-31" d="M 794 531 
L 1825 531 
L 1825 4091 
L 703 3866 
L 703 4441 
L 1819 4666 
L 2450 4666 
L 2450 531 
L 3481 531 
L 3481 0 
L 794 0 
L 794 531 
z
" transform="scale(0.015625)"/>
       </defs>
       <use xlink:href="#DejaVuSans-31"/>
       <use xlink:href="#DejaVuSans-30" x="63.623047"/>
       <use xlink:href="#DejaVuSans-30" x="127.246094"/>
       <use xlink:href="#DejaVuSans-30" x="190.869141"/>
      </g>
     </g>
    </g>
    <g id="xtick_3">
     <g id="line2d_3">
      <g>
       <use xlink:href="#m4f7de4dc8e" x="106.877631" y="118.08" style="stroke: #000000; stroke-width: 0.8"/>
      </g>
     </g>
     <g id="text_3">
      <!-- 2000 -->
      <g transform="translate(94.152631 132.678437) scale(0.1 -0.1)">
       <defs>
        <path id="DejaVuSans-32" d="M 1228 531 
L 3431 531 
L 3431 0 
L 469 0 
L 469 531 
Q 828 903 1448 1529 
Q 2069 2156 2228 2338 
Q 2531 2678 2651 2914 
Q 2772 3150 2772 3378 
Q 2772 3750 2511 3984 
Q 2250 4219 1831 4219 
Q 1534 4219 1204 4116 
Q 875 4013 500 3803 
L 500 4441 
Q 881 4594 1212 4672 
Q 1544 4750 1819 4750 
Q 2544 4750 2975 4387 
Q 3406 4025 3406 3419 
Q 3406 3131 3298 2873 
Q 3191 2616 2906 2266 
Q 2828 2175 2409 1742 
Q 1991 1309 1228 531 
z
" transform="scale(0.015625)"/>
       </defs>
       <use xlink:href="#DejaVuSans-32"/>
       <use xlink:href="#DejaVuSans-30" x="63.623047"/>
       <use xlink:href="#DejaVuSans-30" x="127.246094"/>
       <use xlink:href="#DejaVuSans-30" x="190.869141"/>
      </g>
     </g>
    </g>
    <g id="xtick_4">
     <g id="line2d_4">
      <g>
       <use xlink:href="#m4f7de4dc8e" x="145.811312" y="118.08" style="stroke: #000000; stroke-width: 0.8"/>
      </g>
     </g>
     <g id="text_4">
      <!-- 3000 -->
      <g transform="translate(133.086312 132.678437) scale(0.1 -0.1)">
       <defs>
        <path id="DejaVuSans-33" d="M 2597 2516 
Q 3050 2419 3304 2112 
Q 3559 1806 3559 1356 
Q 3559 666 3084 287 
Q 2609 -91 1734 -91 
Q 1441 -91 1130 -33 
Q 819 25 488 141 
L 488 750 
Q 750 597 1062 519 
Q 1375 441 1716 441 
Q 2309 441 2620 675 
Q 2931 909 2931 1356 
Q 2931 1769 2642 2001 
Q 2353 2234 1838 2234 
L 1294 2234 
L 1294 2753 
L 1863 2753 
Q 2328 2753 2575 2939 
Q 2822 3125 2822 3475 
Q 2822 3834 2567 4026 
Q 2313 4219 1838 4219 
Q 1578 4219 1281 4162 
Q 984 4106 628 3988 
L 628 4550 
Q 988 4650 1302 4700 
Q 1616 4750 1894 4750 
Q 2613 4750 3031 4423 
Q 3450 4097 3450 3541 
Q 3450 3153 3228 2886 
Q 3006 2619 2597 2516 
z
" transform="scale(0.015625)"/>
       </defs>
       <use xlink:href="#DejaVuSans-33"/>
       <use xlink:href="#DejaVuSans-30" x="63.623047"/>
       <use xlink:href="#DejaVuSans-30" x="127.246094"/>
       <use xlink:href="#DejaVuSans-30" x="190.869141"/>
      </g>
     </g>
    </g>
    <g id="xtick_5">
     <g id="line2d_5">
      <g>
       <use xlink:href="#m4f7de4dc8e" x="184.744992" y="118.08" style="stroke: #000000; stroke-width: 0.8"/>
      </g>
     </g>
     <g id="text_5">
      <!-- 4000 -->
      <g transform="translate(172.019992 132.678437) scale(0.1 -0.1)">
       <defs>
        <path id="DejaVuSans-34" d="M 2419 4116 
L 825 1625 
L 2419 1625 
L 2419 4116 
z
M 2253 4666 
L 3047 4666 
L 3047 1625 
L 3713 1625 
L 3713 1100 
L 3047 1100 
L 3047 0 
L 2419 0 
L 2419 1100 
L 313 1100 
L 313 1709 
L 2253 4666 
z
" transform="scale(0.015625)"/>
       </defs>
       <use xlink:href="#DejaVuSans-34"/>
       <use xlink:href="#DejaVuSans-30" x="63.623047"/>
       <use xlink:href="#DejaVuSans-30" x="127.246094"/>
       <use xlink:href="#DejaVuSans-30" x="190.869141"/>
      </g>
     </g>
    </g>
    <g id="xtick_6">
     <g id="line2d_6">
      <g>
       <use xlink:href="#m4f7de4dc8e" x="223.678673" y="118.08" style="stroke: #000000; stroke-width: 0.8"/>
      </g>
     </g>
     <g id="text_6">
      <!-- 5000 -->
      <g transform="translate(210.953673 132.678437) scale(0.1 -0.1)">
       <defs>
        <path id="DejaVuSans-35" d="M 691 4666 
L 3169 4666 
L 3169 4134 
L 1269 4134 
L 1269 2991 
Q 1406 3038 1543 3061 
Q 1681 3084 1819 3084 
Q 2600 3084 3056 2656 
Q 3513 2228 3513 1497 
Q 3513 744 3044 326 
Q 2575 -91 1722 -91 
Q 1428 -91 1123 -41 
Q 819 9 494 109 
L 494 744 
Q 775 591 1075 516 
Q 1375 441 1709 441 
Q 2250 441 2565 725 
Q 2881 1009 2881 1497 
Q 2881 1984 2565 2268 
Q 2250 2553 1709 2553 
Q 1456 2553 1204 2497 
Q 953 2441 691 2322 
L 691 4666 
z
" transform="scale(0.015625)"/>
       </defs>
       <use xlink:href="#DejaVuSans-35"/>
       <use xlink:href="#DejaVuSans-30" x="63.623047"/>
       <use xlink:href="#DejaVuSans-30" x="127.246094"/>
       <use xlink:href="#DejaVuSans-30" x="190.869141"/>
      </g>
     </g>
    </g>
    <g id="xtick_7">
     <g id="line2d_7">
      <g>
       <use xlink:href="#m4f7de4dc8e" x="262.612354" y="118.08" style="stroke: #000000; stroke-width: 0.8"/>
      </g>
     </g>
     <g id="text_7">
      <!-- 6000 -->
      <g transform="translate(249.887354 132.678437) scale(0.1 -0.1)">
       <defs>
        <path id="DejaVuSans-36" d="M 2113 2584 
Q 1688 2584 1439 2293 
Q 1191 2003 1191 1497 
Q 1191 994 1439 701 
Q 1688 409 2113 409 
Q 2538 409 2786 701 
Q 3034 994 3034 1497 
Q 3034 2003 2786 2293 
Q 2538 2584 2113 2584 
z
M 3366 4563 
L 3366 3988 
Q 3128 4100 2886 4159 
Q 2644 4219 2406 4219 
Q 1781 4219 1451 3797 
Q 1122 3375 1075 2522 
Q 1259 2794 1537 2939 
Q 1816 3084 2150 3084 
Q 2853 3084 3261 2657 
Q 3669 2231 3669 1497 
Q 3669 778 3244 343 
Q 2819 -91 2113 -91 
Q 1303 -91 875 529 
Q 447 1150 447 2328 
Q 447 3434 972 4092 
Q 1497 4750 2381 4750 
Q 2619 4750 2861 4703 
Q 3103 4656 3366 4563 
z
" transform="scale(0.015625)"/>
       </defs>
       <use xlink:href="#DejaVuSans-36"/>
       <use xlink:href="#DejaVuSans-30" x="63.623047"/>
       <use xlink:href="#DejaVuSans-30" x="127.246094"/>
       <use xlink:href="#DejaVuSans-30" x="190.869141"/>
      </g>
     </g>
    </g>
    <g id="xtick_8">
     <g id="line2d_8">
      <g>
       <use xlink:href="#m4f7de4dc8e" x="301.546034" y="118.08" style="stroke: #000000; stroke-width: 0.8"/>
      </g>
     </g>
     <g id="text_8">
      <!-- 7000 -->
      <g transform="translate(288.821034 132.678437) scale(0.1 -0.1)">
       <defs>
        <path id="DejaVuSans-37" d="M 525 4666 
L 3525 4666 
L 3525 4397 
L 1831 0 
L 1172 0 
L 2766 4134 
L 525 4134 
L 525 4666 
z
" transform="scale(0.015625)"/>
       </defs>
       <use xlink:href="#DejaVuSans-37"/>
       <use xlink:href="#DejaVuSans-30" x="63.623047"/>
       <use xlink:href="#DejaVuSans-30" x="127.246094"/>
       <use xlink:href="#DejaVuSans-30" x="190.869141"/>
      </g>
     </g>
    </g>
    <g id="xtick_9">
     <g id="line2d_9">
      <g>
       <use xlink:href="#m4f7de4dc8e" x="340.479715" y="118.08" style="stroke: #000000; stroke-width: 0.8"/>
      </g>
     </g>
     <g id="text_9">
      <!-- 8000 -->
      <g transform="translate(327.754715 132.678437) scale(0.1 -0.1)">
       <defs>
        <path id="DejaVuSans-38" d="M 2034 2216 
Q 1584 2216 1326 1975 
Q 1069 1734 1069 1313 
Q 1069 891 1326 650 
Q 1584 409 2034 409 
Q 2484 409 2743 651 
Q 3003 894 3003 1313 
Q 3003 1734 2745 1975 
Q 2488 2216 2034 2216 
z
M 1403 2484 
Q 997 2584 770 2862 
Q 544 3141 544 3541 
Q 544 4100 942 4425 
Q 1341 4750 2034 4750 
Q 2731 4750 3128 4425 
Q 3525 4100 3525 3541 
Q 3525 3141 3298 2862 
Q 3072 2584 2669 2484 
Q 3125 2378 3379 2068 
Q 3634 1759 3634 1313 
Q 3634 634 3220 271 
Q 2806 -91 2034 -91 
Q 1263 -91 848 271 
Q 434 634 434 1313 
Q 434 1759 690 2068 
Q 947 2378 1403 2484 
z
M 1172 3481 
Q 1172 3119 1398 2916 
Q 1625 2713 2034 2713 
Q 2441 2713 2670 2916 
Q 2900 3119 2900 3481 
Q 2900 3844 2670 4047 
Q 2441 4250 2034 4250 
Q 1625 4250 1398 4047 
Q 1172 3844 1172 3481 
z
" transform="scale(0.015625)"/>
       </defs>
       <use xlink:href="#DejaVuSans-38"/>
       <use xlink:href="#DejaVuSans-30" x="63.623047"/>
       <use xlink:href="#DejaVuSans-30" x="127.246094"/>
       <use xlink:href="#DejaVuSans-30" x="190.869141"/>
      </g>
     </g>
    </g>
    <g id="text_10">
     <!-- euc_dis -->
     <g transform="translate(169.615625 146.356562) scale(0.1 -0.1)">
      <defs>
       <path id="DejaVuSans-65" d="M 3597 1894 
L 3597 1613 
L 953 1613 
Q 991 1019 1311 708 
Q 1631 397 2203 397 
Q 2534 397 2845 478 
Q 3156 559 3463 722 
L 3463 178 
Q 3153 47 2828 -22 
Q 2503 -91 2169 -91 
Q 1331 -91 842 396 
Q 353 884 353 1716 
Q 353 2575 817 3079 
Q 1281 3584 2069 3584 
Q 2775 3584 3186 3129 
Q 3597 2675 3597 1894 
z
M 3022 2063 
Q 3016 2534 2758 2815 
Q 2500 3097 2075 3097 
Q 1594 3097 1305 2825 
Q 1016 2553 972 2059 
L 3022 2063 
z
" transform="scale(0.015625)"/>
       <path id="DejaVuSans-75" d="M 544 1381 
L 544 3500 
L 1119 3500 
L 1119 1403 
Q 1119 906 1312 657 
Q 1506 409 1894 409 
Q 2359 409 2629 706 
Q 2900 1003 2900 1516 
L 2900 3500 
L 3475 3500 
L 3475 0 
L 2900 0 
L 2900 538 
Q 2691 219 2414 64 
Q 2138 -91 1772 -91 
Q 1169 -91 856 284 
Q 544 659 544 1381 
z
M 1991 3584 
L 1991 3584 
z
" transform="scale(0.015625)"/>
       <path id="DejaVuSans-63" d="M 3122 3366 
L 3122 2828 
Q 2878 2963 2633 3030 
Q 2388 3097 2138 3097 
Q 1578 3097 1268 2742 
Q 959 2388 959 1747 
Q 959 1106 1268 751 
Q 1578 397 2138 397 
Q 2388 397 2633 464 
Q 2878 531 3122 666 
L 3122 134 
Q 2881 22 2623 -34 
Q 2366 -91 2075 -91 
Q 1284 -91 818 406 
Q 353 903 353 1747 
Q 353 2603 823 3093 
Q 1294 3584 2113 3584 
Q 2378 3584 2631 3529 
Q 2884 3475 3122 3366 
z
" transform="scale(0.015625)"/>
       <path id="DejaVuSans-5f" d="M 3263 -1063 
L 3263 -1509 
L -63 -1509 
L -63 -1063 
L 3263 -1063 
z
" transform="scale(0.015625)"/>
       <path id="DejaVuSans-64" d="M 2906 2969 
L 2906 4863 
L 3481 4863 
L 3481 0 
L 2906 0 
L 2906 525 
Q 2725 213 2448 61 
Q 2172 -91 1784 -91 
Q 1150 -91 751 415 
Q 353 922 353 1747 
Q 353 2572 751 3078 
Q 1150 3584 1784 3584 
Q 2172 3584 2448 3432 
Q 2725 3281 2906 2969 
z
M 947 1747 
Q 947 1113 1208 752 
Q 1469 391 1925 391 
Q 2381 391 2643 752 
Q 2906 1113 2906 1747 
Q 2906 2381 2643 2742 
Q 2381 3103 1925 3103 
Q 1469 3103 1208 2742 
Q 947 2381 947 1747 
z
" transform="scale(0.015625)"/>
       <path id="DejaVuSans-69" d="M 603 3500 
L 1178 3500 
L 1178 0 
L 603 0 
L 603 3500 
z
M 603 4863 
L 1178 4863 
L 1178 4134 
L 603 4134 
L 603 4863 
z
" transform="scale(0.015625)"/>
       <path id="DejaVuSans-73" d="M 2834 3397 
L 2834 2853 
Q 2591 2978 2328 3040 
Q 2066 3103 1784 3103 
Q 1356 3103 1142 2972 
Q 928 2841 928 2578 
Q 928 2378 1081 2264 
Q 1234 2150 1697 2047 
L 1894 2003 
Q 2506 1872 2764 1633 
Q 3022 1394 3022 966 
Q 3022 478 2636 193 
Q 2250 -91 1575 -91 
Q 1294 -91 989 -36 
Q 684 19 347 128 
L 347 722 
Q 666 556 975 473 
Q 1284 391 1588 391 
Q 1994 391 2212 530 
Q 2431 669 2431 922 
Q 2431 1156 2273 1281 
Q 2116 1406 1581 1522 
L 1381 1569 
Q 847 1681 609 1914 
Q 372 2147 372 2553 
Q 372 3047 722 3315 
Q 1072 3584 1716 3584 
Q 2034 3584 2315 3537 
Q 2597 3491 2834 3397 
z
" transform="scale(0.015625)"/>
      </defs>
      <use xlink:href="#DejaVuSans-65"/>
      <use xlink:href="#DejaVuSans-75" x="61.523438"/>
      <use xlink:href="#DejaVuSans-63" x="124.902344"/>
      <use xlink:href="#DejaVuSans-5f" x="179.882812"/>
      <use xlink:href="#DejaVuSans-64" x="229.882812"/>
      <use xlink:href="#DejaVuSans-69" x="293.359375"/>
      <use xlink:href="#DejaVuSans-73" x="321.142578"/>
     </g>
    </g>
   </g>
   <g id="matplotlib.axis_2">
    <g id="ytick_1">
     <g id="line2d_10">
      <defs>
       <path id="maa33de1c73" d="M 0 0 
L 3.5 0 
" style="stroke: #000000; stroke-width: 0.8"/>
      </defs>
      <g>
       <use xlink:href="#maa33de1c73" x="355.678125" y="67.68" style="stroke: #000000; stroke-width: 0.8"/>
      </g>
     </g>
     <g id="text_11">
      <!-- 500 -->
      <g transform="translate(362.678125 71.479219) scale(0.1 -0.1)">
       <use xlink:href="#DejaVuSans-35"/>
       <use xlink:href="#DejaVuSans-30" x="63.623047"/>
       <use xlink:href="#DejaVuSans-30" x="127.246094"/>
      </g>
     </g>
    </g>
    <g id="ytick_2">
     <g id="line2d_11">
      <g>
       <use xlink:href="#maa33de1c73" x="355.678125" y="17.28" style="stroke: #000000; stroke-width: 0.8"/>
      </g>
     </g>
     <g id="text_12">
      <!-- 1000 -->
      <g transform="translate(362.678125 21.079219) scale(0.1 -0.1)">
       <use xlink:href="#DejaVuSans-31"/>
       <use xlink:href="#DejaVuSans-30" x="63.623047"/>
       <use xlink:href="#DejaVuSans-30" x="127.246094"/>
       <use xlink:href="#DejaVuSans-30" x="190.869141"/>
      </g>
     </g>
    </g>
    <g id="text_13">
     <!-- Count -->
     <g transform="translate(14.798438 77.488437) rotate(-90) scale(0.1 -0.1)">
      <defs>
       <path id="DejaVuSans-43" d="M 4122 4306 
L 4122 3641 
Q 3803 3938 3442 4084 
Q 3081 4231 2675 4231 
Q 1875 4231 1450 3742 
Q 1025 3253 1025 2328 
Q 1025 1406 1450 917 
Q 1875 428 2675 428 
Q 3081 428 3442 575 
Q 3803 722 4122 1019 
L 4122 359 
Q 3791 134 3420 21 
Q 3050 -91 2638 -91 
Q 1578 -91 968 557 
Q 359 1206 359 2328 
Q 359 3453 968 4101 
Q 1578 4750 2638 4750 
Q 3056 4750 3426 4639 
Q 3797 4528 4122 4306 
z
" transform="scale(0.015625)"/>
       <path id="DejaVuSans-6f" d="M 1959 3097 
Q 1497 3097 1228 2736 
Q 959 2375 959 1747 
Q 959 1119 1226 758 
Q 1494 397 1959 397 
Q 2419 397 2687 759 
Q 2956 1122 2956 1747 
Q 2956 2369 2687 2733 
Q 2419 3097 1959 3097 
z
M 1959 3584 
Q 2709 3584 3137 3096 
Q 3566 2609 3566 1747 
Q 3566 888 3137 398 
Q 2709 -91 1959 -91 
Q 1206 -91 779 398 
Q 353 888 353 1747 
Q 353 2609 779 3096 
Q 1206 3584 1959 3584 
z
" transform="scale(0.015625)"/>
       <path id="DejaVuSans-6e" d="M 3513 2113 
L 3513 0 
L 2938 0 
L 2938 2094 
Q 2938 2591 2744 2837 
Q 2550 3084 2163 3084 
Q 1697 3084 1428 2787 
Q 1159 2491 1159 1978 
L 1159 0 
L 581 0 
L 581 3500 
L 1159 3500 
L 1159 2956 
Q 1366 3272 1645 3428 
Q 1925 3584 2291 3584 
Q 2894 3584 3203 3211 
Q 3513 2838 3513 2113 
z
" transform="scale(0.015625)"/>
       <path id="DejaVuSans-74" d="M 1172 4494 
L 1172 3500 
L 2356 3500 
L 2356 3053 
L 1172 3053 
L 1172 1153 
Q 1172 725 1289 603 
Q 1406 481 1766 481 
L 2356 481 
L 2356 0 
L 1766 0 
Q 1100 0 847 248 
Q 594 497 594 1153 
L 594 3053 
L 172 3053 
L 172 3500 
L 594 3500 
L 594 4494 
L 1172 4494 
z
" transform="scale(0.015625)"/>
      </defs>
      <use xlink:href="#DejaVuSans-43"/>
      <use xlink:href="#DejaVuSans-6f" x="69.824219"/>
      <use xlink:href="#DejaVuSans-75" x="131.005859"/>
      <use xlink:href="#DejaVuSans-6e" x="194.384766"/>
      <use xlink:href="#DejaVuSans-74" x="257.763672"/>
     </g>
    </g>
   </g>
   <g id="patch_49">
    <path d="M 355.678125 118.08 
L 355.678125 7.2 
" style="fill: none; stroke: #000000; stroke-width: 0.8; stroke-linejoin: miter; stroke-linecap: square"/>
   </g>
   <g id="patch_50">
    <path d="M 20.878125 118.08 
L 355.678125 118.08 
" style="fill: none; stroke: #000000; stroke-width: 0.8; stroke-linejoin: miter; stroke-linecap: square"/>
   </g>
  </g>
 </g>
 <defs>
  <clipPath id="p90b20ea848">
   <rect x="20.878125" y="7.2" width="334.8" height="110.88"/>
  </clipPath>
 </defs>
</svg>
