<?xml version="1.0" encoding="utf-8" standalone="no"?>
<!DOCTYPE svg PUBLIC "-//W3C//DTD SVG 1.1//EN"
  "http://www.w3.org/Graphics/SVG/1.1/DTD/svg11.dtd">
<svg xmlns:xlink="http://www.w3.org/1999/xlink" width="403.279687pt" height="155.63625pt" viewBox="0 0 403.279687 155.63625" xmlns="http://www.w3.org/2000/svg" version="1.1">
 <metadata>
  <rdf:RDF xmlns:dc="http://purl.org/dc/elements/1.1/" xmlns:cc="http://creativecommons.org/ns#" xmlns:rdf="http://www.w3.org/1999/02/22-rdf-syntax-ns#">
   <cc:Work>
    <dc:type rdf:resource="http://purl.org/dc/dcmitype/StillImage"/>
    <dc:date>2025-12-16T14:27:28.773493</dc:date>
    <dc:format>image/svg+xml</dc:format>
    <dc:creator>
     <cc:Agent>
      <dc:title>Matplotlib v3.9.4, https://matplotlib.org/</dc:title>
     </cc:Agent>
    </dc:creator>
   </cc:Work>
  </rdf:RDF>
 </metadata>
 <defs>
  <style type="text/css">*{stroke-linejoin: round; stroke-linecap: butt}</style>
 </defs>
 <g id="figure_1">
  <g id="patch_1">
   <path d="M 0 155.63625 
L 403.279687 155.63625 
L 403.279687 0 
L 0 0 
z
" style="fill: #ffffff"/>
  </g>
  <g id="axes_1">
   <g id="patch_2">
    <path d="M 53.328125 118.08 
L 388.128125 118.08 
L 388.128125 7.2 
L 53.328125 7.2 
z
" style="fill: #ffffff"/>
   </g>
   <g id="patch_3">
    <path d="M 68.359654 118.08 
L 76.270986 118.08 
L 76.270986 104.027554 
L 68.359654 104.027554 
z
" clip-path="url(#pfc05a2194c)" style="fill: #add8e6; fill-opacity: 0.75; stroke: #000000; stroke-width: 0.800957; stroke-linejoin: miter"/>
   </g>
   <g id="patch_4">
    <path d="M 76.270986 118.08 
L 84.182317 118.08 
L 84.182317 52.777456 
L 76.270986 52.777456 
z
" clip-path="url(#pfc05a2194c)" style="fill: #add8e6; fill-opacity: 0.75; stroke: #000000; stroke-width: 0.800957; stroke-linejoin: miter"/>
   </g>
   <g id="patch_5">
    <path d="M 84.182317 118.08 
L 92.093648 118.08 
L 92.093648 36.45182 
L 84.182317 36.45182 
z
" clip-path="url(#pfc05a2194c)" style="fill: #add8e6; fill-opacity: 0.75; stroke: #000000; stroke-width: 0.800957; stroke-linejoin: miter"/>
   </g>
   <g id="patch_6">
    <path d="M 92.093648 118.08 
L 100.004979 118.08 
L 100.004979 41.411507 
L 92.093648 41.411507 
z
" clip-path="url(#pfc05a2194c)" style="fill: #add8e6; fill-opacity: 0.75; stroke: #000000; stroke-width: 0.800957; stroke-linejoin: miter"/>
   </g>
   <g id="patch_7">
    <path d="M 100.004979 118.08 
L 107.916311 118.08 
L 107.916311 35.005245 
L 100.004979 35.005245 
z
" clip-path="url(#pfc05a2194c)" style="fill: #add8e6; fill-opacity: 0.75; stroke: #000000; stroke-width: 0.800957; stroke-linejoin: miter"/>
   </g>
   <g id="patch_8">
    <path d="M 107.916311 118.08 
L 115.827642 118.08 
L 115.827642 24.672564 
L 107.916311 24.672564 
z
" clip-path="url(#pfc05a2194c)" style="fill: #add8e6; fill-opacity: 0.75; stroke: #000000; stroke-width: 0.800957; stroke-linejoin: miter"/>
   </g>
   <g id="patch_9">
    <path d="M 115.827642 118.08 
L 123.738973 118.08 
L 123.738973 19.092916 
L 115.827642 19.092916 
z
" clip-path="url(#pfc05a2194c)" style="fill: #add8e6; fill-opacity: 0.75; stroke: #000000; stroke-width: 0.800957; stroke-linejoin: miter"/>
   </g>
   <g id="patch_10">
    <path d="M 123.738973 118.08 
L 131.650304 118.08 
L 131.650304 20.332838 
L 123.738973 20.332838 
z
" clip-path="url(#pfc05a2194c)" style="fill: #add8e6; fill-opacity: 0.75; stroke: #000000; stroke-width: 0.800957; stroke-linejoin: miter"/>
   </g>
   <g id="patch_11">
    <path d="M 131.650304 118.08 
L 139.561636 118.08 
L 139.561636 13.719922 
L 131.650304 13.719922 
z
" clip-path="url(#pfc05a2194c)" style="fill: #add8e6; fill-opacity: 0.75; stroke: #000000; stroke-width: 0.800957; stroke-linejoin: miter"/>
   </g>
   <g id="patch_12">
    <path d="M 139.561636 118.08 
L 147.472967 118.08 
L 147.472967 15.786458 
L 139.561636 15.786458 
z
" clip-path="url(#pfc05a2194c)" style="fill: #add8e6; fill-opacity: 0.75; stroke: #000000; stroke-width: 0.800957; stroke-linejoin: miter"/>
   </g>
   <g id="patch_13">
    <path d="M 147.472967 118.08 
L 155.384298 118.08 
L 155.384298 14.133229 
L 147.472967 14.133229 
z
" clip-path="url(#pfc05a2194c)" style="fill: #add8e6; fill-opacity: 0.75; stroke: #000000; stroke-width: 0.800957; stroke-linejoin: miter"/>
   </g>
   <g id="patch_14">
    <path d="M 155.384298 118.08 
L 163.295629 118.08 
L 163.295629 12.48 
L 155.384298 12.48 
z
" clip-path="url(#pfc05a2194c)" style="fill: #add8e6; fill-opacity: 0.75; stroke: #000000; stroke-width: 0.800957; stroke-linejoin: miter"/>
   </g>
   <g id="patch_15">
    <path d="M 163.295629 118.08 
L 171.206961 118.08 
L 171.206961 16.406419 
L 163.295629 16.406419 
z
" clip-path="url(#pfc05a2194c)" style="fill: #add8e6; fill-opacity: 0.75; stroke: #000000; stroke-width: 0.800957; stroke-linejoin: miter"/>
   </g>
   <g id="patch_16">
    <path d="M 171.206961 118.08 
L 179.118292 118.08 
L 179.118292 28.805636 
L 171.206961 28.805636 
z
" clip-path="url(#pfc05a2194c)" style="fill: #add8e6; fill-opacity: 0.75; stroke: #000000; stroke-width: 0.800957; stroke-linejoin: miter"/>
   </g>
   <g id="patch_17">
    <path d="M 179.118292 118.08 
L 187.029623 118.08 
L 187.029623 32.318748 
L 179.118292 32.318748 
z
" clip-path="url(#pfc05a2194c)" style="fill: #add8e6; fill-opacity: 0.75; stroke: #000000; stroke-width: 0.800957; stroke-linejoin: miter"/>
   </g>
   <g id="patch_18">
    <path d="M 187.029623 118.08 
L 194.940954 118.08 
L 194.940954 36.658474 
L 187.029623 36.658474 
z
" clip-path="url(#pfc05a2194c)" style="fill: #add8e6; fill-opacity: 0.75; stroke: #000000; stroke-width: 0.800957; stroke-linejoin: miter"/>
   </g>
   <g id="patch_19">
    <path d="M 194.940954 118.08 
L 202.852286 118.08 
L 202.852286 38.518356 
L 194.940954 38.518356 
z
" clip-path="url(#pfc05a2194c)" style="fill: #add8e6; fill-opacity: 0.75; stroke: #000000; stroke-width: 0.800957; stroke-linejoin: miter"/>
   </g>
   <g id="patch_20">
    <path d="M 202.852286 118.08 
L 210.763617 118.08 
L 210.763617 43.684697 
L 202.852286 43.684697 
z
" clip-path="url(#pfc05a2194c)" style="fill: #add8e6; fill-opacity: 0.75; stroke: #000000; stroke-width: 0.800957; stroke-linejoin: miter"/>
   </g>
   <g id="patch_21">
    <path d="M 210.763617 118.08 
L 218.674948 118.08 
L 218.674948 38.518356 
L 210.763617 38.518356 
z
" clip-path="url(#pfc05a2194c)" style="fill: #add8e6; fill-opacity: 0.75; stroke: #000000; stroke-width: 0.800957; stroke-linejoin: miter"/>
   </g>
   <g id="patch_22">
    <path d="M 218.674948 118.08 
L 226.586279 118.08 
L 226.586279 38.931663 
L 218.674948 38.931663 
z
" clip-path="url(#pfc05a2194c)" style="fill: #add8e6; fill-opacity: 0.75; stroke: #000000; stroke-width: 0.800957; stroke-linejoin: miter"/>
   </g>
   <g id="patch_23">
    <path d="M 226.586279 118.08 
L 234.497611 118.08 
L 234.497611 46.991155 
L 226.586279 46.991155 
z
" clip-path="url(#pfc05a2194c)" style="fill: #add8e6; fill-opacity: 0.75; stroke: #000000; stroke-width: 0.800957; stroke-linejoin: miter"/>
   </g>
   <g id="patch_24">
    <path d="M 234.497611 118.08 
L 242.408942 118.08 
L 242.408942 47.611115 
L 234.497611 47.611115 
z
" clip-path="url(#pfc05a2194c)" style="fill: #add8e6; fill-opacity: 0.75; stroke: #000000; stroke-width: 0.800957; stroke-linejoin: miter"/>
   </g>
   <g id="patch_25">
    <path d="M 242.408942 118.08 
L 250.320273 118.08 
L 250.320273 42.858082 
L 242.408942 42.858082 
z
" clip-path="url(#pfc05a2194c)" style="fill: #add8e6; fill-opacity: 0.75; stroke: #000000; stroke-width: 0.800957; stroke-linejoin: miter"/>
   </g>
   <g id="patch_26">
    <path d="M 250.320273 118.08 
L 258.231604 118.08 
L 258.231604 55.87726 
L 250.320273 55.87726 
z
" clip-path="url(#pfc05a2194c)" style="fill: #add8e6; fill-opacity: 0.75; stroke: #000000; stroke-width: 0.800957; stroke-linejoin: miter"/>
   </g>
   <g id="patch_27">
    <path d="M 258.231604 118.08 
L 266.142936 118.08 
L 266.142936 47.611115 
L 258.231604 47.611115 
z
" clip-path="url(#pfc05a2194c)" style="fill: #add8e6; fill-opacity: 0.75; stroke: #000000; stroke-width: 0.800957; stroke-linejoin: miter"/>
   </g>
   <g id="patch_28">
    <path d="M 266.142936 118.08 
L 274.054267 118.08 
L 274.054267 48.024423 
L 266.142936 48.024423 
z
" clip-path="url(#pfc05a2194c)" style="fill: #add8e6; fill-opacity: 0.75; stroke: #000000; stroke-width: 0.800957; stroke-linejoin: miter"/>
   </g>
   <g id="patch_29">
    <path d="M 274.054267 118.08 
L 281.965598 118.08 
L 281.965598 57.737143 
L 274.054267 57.737143 
z
" clip-path="url(#pfc05a2194c)" style="fill: #add8e6; fill-opacity: 0.75; stroke: #000000; stroke-width: 0.800957; stroke-linejoin: miter"/>
   </g>
   <g id="patch_30">
    <path d="M 281.965598 118.08 
L 289.876929 118.08 
L 289.876929 52.98411 
L 281.965598 52.98411 
z
" clip-path="url(#pfc05a2194c)" style="fill: #add8e6; fill-opacity: 0.75; stroke: #000000; stroke-width: 0.800957; stroke-linejoin: miter"/>
   </g>
   <g id="patch_31">
    <path d="M 289.876929 118.08 
L 297.788261 118.08 
L 297.788261 63.936751 
L 289.876929 63.936751 
z
" clip-path="url(#pfc05a2194c)" style="fill: #add8e6; fill-opacity: 0.75; stroke: #000000; stroke-width: 0.800957; stroke-linejoin: miter"/>
   </g>
   <g id="patch_32">
    <path d="M 297.788261 118.08 
L 305.699592 118.08 
L 305.699592 60.42364 
L 297.788261 60.42364 
z
" clip-path="url(#pfc05a2194c)" style="fill: #add8e6; fill-opacity: 0.75; stroke: #000000; stroke-width: 0.800957; stroke-linejoin: miter"/>
   </g>
   <g id="patch_33">
    <path d="M 305.699592 118.08 
L 313.610923 118.08 
L 313.610923 70.962975 
L 305.699592 70.962975 
z
" clip-path="url(#pfc05a2194c)" style="fill: #add8e6; fill-opacity: 0.75; stroke: #000000; stroke-width: 0.800957; stroke-linejoin: miter"/>
   </g>
   <g id="patch_34">
    <path d="M 313.610923 118.08 
L 321.522254 118.08 
L 321.522254 77.782544 
L 313.610923 77.782544 
z
" clip-path="url(#pfc05a2194c)" style="fill: #add8e6; fill-opacity: 0.75; stroke: #000000; stroke-width: 0.800957; stroke-linejoin: miter"/>
   </g>
   <g id="patch_35">
    <path d="M 321.522254 118.08 
L 329.433586 118.08 
L 329.433586 86.461996 
L 321.522254 86.461996 
z
" clip-path="url(#pfc05a2194c)" style="fill: #add8e6; fill-opacity: 0.75; stroke: #000000; stroke-width: 0.800957; stroke-linejoin: miter"/>
   </g>
   <g id="patch_36">
    <path d="M 329.433586 118.08 
L 337.344917 118.08 
L 337.344917 92.248297 
L 329.433586 92.248297 
z
" clip-path="url(#pfc05a2194c)" style="fill: #add8e6; fill-opacity: 0.75; stroke: #000000; stroke-width: 0.800957; stroke-linejoin: miter"/>
   </g>
   <g id="patch_37">
    <path d="M 337.344917 118.08 
L 345.256248 118.08 
L 345.256248 99.274521 
L 337.344917 99.274521 
z
" clip-path="url(#pfc05a2194c)" style="fill: #add8e6; fill-opacity: 0.75; stroke: #000000; stroke-width: 0.800957; stroke-linejoin: miter"/>
   </g>
   <g id="patch_38">
    <path d="M 345.256248 118.08 
L 353.167579 118.08 
L 353.167579 102.787632 
L 345.256248 102.787632 
z
" clip-path="url(#pfc05a2194c)" style="fill: #add8e6; fill-opacity: 0.75; stroke: #000000; stroke-width: 0.800957; stroke-linejoin: miter"/>
   </g>
   <g id="patch_39">
    <path d="M 353.167579 118.08 
L 361.078911 118.08 
L 361.078911 107.953973 
L 353.167579 107.953973 
z
" clip-path="url(#pfc05a2194c)" style="fill: #add8e6; fill-opacity: 0.75; stroke: #000000; stroke-width: 0.800957; stroke-linejoin: miter"/>
   </g>
   <g id="patch_40">
    <path d="M 361.078911 118.08 
L 368.990242 118.08 
L 368.990242 115.393503 
L 361.078911 115.393503 
z
" clip-path="url(#pfc05a2194c)" style="fill: #add8e6; fill-opacity: 0.75; stroke: #000000; stroke-width: 0.800957; stroke-linejoin: miter"/>
   </g>
   <g id="matplotlib.axis_1">
    <g id="xtick_1">
     <g id="line2d_1">
      <defs>
       <path id="mccc980a258" d="M 0 0 
L 0 3.5 
" style="stroke: #000000; stroke-width: 0.8"/>
      </defs>
      <g>
       <use xlink:href="#mccc980a258" x="61.536496" y="118.08" style="stroke: #000000; stroke-width: 0.8"/>
      </g>
     </g>
     <g id="text_1">
      <!-- 0.0 -->
      <g transform="translate(53.584933 132.678438) scale(0.1 -0.1)">
       <defs>
        <path id="DejaVuSans-30" d="M 2034 4250 
Q 1547 4250 1301 3770 
Q 1056 3291 1056 2328 
Q 1056 1369 1301 889 
Q 1547 409 2034 409 
Q 2525 409 2770 889 
Q 3016 1369 3016 2328 
Q 3016 3291 2770 3770 
Q 2525 4250 2034 4250 
z
M 2034 4750 
Q 2819 4750 3233 4129 
Q 3647 3509 3647 2328 
Q 3647 1150 3233 529 
Q 2819 -91 2034 -91 
Q 1250 -91 836 529 
Q 422 1150 422 2328 
Q 422 3509 836 4129 
Q 1250 4750 2034 4750 
z
" transform="scale(0.015625)"/>
        <path id="DejaVuSans-2e" d="M 684 794 
L 1344 794 
L 1344 0 
L 684 0 
L 684 794 
z
" transform="scale(0.015625)"/>
       </defs>
       <use xlink:href="#DejaVuSans-30"/>
       <use xlink:href="#DejaVuSans-2e" x="63.623047"/>
       <use xlink:href="#DejaVuSans-30" x="95.410156"/>
      </g>
     </g>
    </g>
    <g id="xtick_2">
     <g id="line2d_2">
      <g>
       <use xlink:href="#mccc980a258" x="126.854822" y="118.08" style="stroke: #000000; stroke-width: 0.8"/>
      </g>
     </g>
     <g id="text_2">
      <!-- 0.2 -->
      <g transform="translate(118.903259 132.678438) scale(0.1 -0.1)">
       <defs>
        <path id="DejaVuSans-32" d="M 1228 531 
L 3431 531 
L 3431 0 
L 469 0 
L 469 531 
Q 828 903 1448 1529 
Q 2069 2156 2228 2338 
Q 2531 2678 2651 2914 
Q 2772 3150 2772 3378 
Q 2772 3750 2511 3984 
Q 2250 4219 1831 4219 
Q 1534 4219 1204 4116 
Q 875 4013 500 3803 
L 500 4441 
Q 881 4594 1212 4672 
Q 1544 4750 1819 4750 
Q 2544 4750 2975 4387 
Q 3406 4025 3406 3419 
Q 3406 3131 3298 2873 
Q 3191 2616 2906 2266 
Q 2828 2175 2409 1742 
Q 1991 1309 1228 531 
z
" transform="scale(0.015625)"/>
       </defs>
       <use xlink:href="#DejaVuSans-30"/>
       <use xlink:href="#DejaVuSans-2e" x="63.623047"/>
       <use xlink:href="#DejaVuSans-32" x="95.410156"/>
      </g>
     </g>
    </g>
    <g id="xtick_3">
     <g id="line2d_3">
      <g>
       <use xlink:href="#mccc980a258" x="192.173148" y="118.08" style="stroke: #000000; stroke-width: 0.8"/>
      </g>
     </g>
     <g id="text_3">
      <!-- 0.4 -->
      <g transform="translate(184.221585 132.678438) scale(0.1 -0.1)">
       <defs>
        <path id="DejaVuSans-34" d="M 2419 4116 
L 825 1625 
L 2419 1625 
L 2419 4116 
z
M 2253 4666 
L 3047 4666 
L 3047 1625 
L 3713 1625 
L 3713 1100 
L 3047 1100 
L 3047 0 
L 2419 0 
L 2419 1100 
L 313 1100 
L 313 1709 
L 2253 4666 
z
" transform="scale(0.015625)"/>
       </defs>
       <use xlink:href="#DejaVuSans-30"/>
       <use xlink:href="#DejaVuSans-2e" x="63.623047"/>
       <use xlink:href="#DejaVuSans-34" x="95.410156"/>
      </g>
     </g>
    </g>
    <g id="xtick_4">
     <g id="line2d_4">
      <g>
       <use xlink:href="#mccc980a258" x="257.491473" y="118.08" style="stroke: #000000; stroke-width: 0.8"/>
      </g>
     </g>
     <g id="text_4">
      <!-- 0.6 -->
      <g transform="translate(249.539911 132.678438) scale(0.1 -0.1)">
       <defs>
        <path id="DejaVuSans-36" d="M 2113 2584 
Q 1688 2584 1439 2293 
Q 1191 2003 1191 1497 
Q 1191 994 1439 701 
Q 1688 409 2113 409 
Q 2538 409 2786 701 
Q 3034 994 3034 1497 
Q 3034 2003 2786 2293 
Q 2538 2584 2113 2584 
z
M 3366 4563 
L 3366 3988 
Q 3128 4100 2886 4159 
Q 2644 4219 2406 4219 
Q 1781 4219 1451 3797 
Q 1122 3375 1075 2522 
Q 1259 2794 1537 2939 
Q 1816 3084 2150 3084 
Q 2853 3084 3261 2657 
Q 3669 2231 3669 1497 
Q 3669 778 3244 343 
Q 2819 -91 2113 -91 
Q 1303 -91 875 529 
Q 447 1150 447 2328 
Q 447 3434 972 4092 
Q 1497 4750 2381 4750 
Q 2619 4750 2861 4703 
Q 3103 4656 3366 4563 
z
" transform="scale(0.015625)"/>
       </defs>
       <use xlink:href="#DejaVuSans-30"/>
       <use xlink:href="#DejaVuSans-2e" x="63.623047"/>
       <use xlink:href="#DejaVuSans-36" x="95.410156"/>
      </g>
     </g>
    </g>
    <g id="xtick_5">
     <g id="line2d_5">
      <g>
       <use xlink:href="#mccc980a258" x="322.809799" y="118.08" style="stroke: #000000; stroke-width: 0.8"/>
      </g>
     </g>
     <g id="text_5">
      <!-- 0.8 -->
      <g transform="translate(314.858237 132.678438) scale(0.1 -0.1)">
       <defs>
        <path id="DejaVuSans-38" d="M 2034 2216 
Q 1584 2216 1326 1975 
Q 1069 1734 1069 1313 
Q 1069 891 1326 650 
Q 1584 409 2034 409 
Q 2484 409 2743 651 
Q 3003 894 3003 1313 
Q 3003 1734 2745 1975 
Q 2488 2216 2034 2216 
z
M 1403 2484 
Q 997 2584 770 2862 
Q 544 3141 544 3541 
Q 544 4100 942 4425 
Q 1341 4750 2034 4750 
Q 2731 4750 3128 4425 
Q 3525 4100 3525 3541 
Q 3525 3141 3298 2862 
Q 3072 2584 2669 2484 
Q 3125 2378 3379 2068 
Q 3634 1759 3634 1313 
Q 3634 634 3220 271 
Q 2806 -91 2034 -91 
Q 1263 -91 848 271 
Q 434 634 434 1313 
Q 434 1759 690 2068 
Q 947 2378 1403 2484 
z
M 1172 3481 
Q 1172 3119 1398 2916 
Q 1625 2713 2034 2713 
Q 2441 2713 2670 2916 
Q 2900 3119 2900 3481 
Q 2900 3844 2670 4047 
Q 2441 4250 2034 4250 
Q 1625 4250 1398 4047 
Q 1172 3844 1172 3481 
z
" transform="scale(0.015625)"/>
       </defs>
       <use xlink:href="#DejaVuSans-30"/>
       <use xlink:href="#DejaVuSans-2e" x="63.623047"/>
       <use xlink:href="#DejaVuSans-38" x="95.410156"/>
      </g>
     </g>
    </g>
    <g id="xtick_6">
     <g id="line2d_6">
      <g>
       <use xlink:href="#mccc980a258" x="388.128125" y="118.08" style="stroke: #000000; stroke-width: 0.8"/>
      </g>
     </g>
     <g id="text_6">
      <!-- 1.0 -->
      <g transform="translate(380.176562 132.678438) scale(0.1 -0.1)">
       <defs>
        <path id="DejaVuSans-31" d="M 794 531 
L 1825 531 
L 1825 4091 
L 703 3866 
L 703 4441 
L 1819 4666 
L 2450 4666 
L 2450 531 
L 3481 531 
L 3481 0 
L 794 0 
L 794 531 
z
" transform="scale(0.015625)"/>
       </defs>
       <use xlink:href="#DejaVuSans-31"/>
       <use xlink:href="#DejaVuSans-2e" x="63.623047"/>
       <use xlink:href="#DejaVuSans-30" x="95.410156"/>
      </g>
     </g>
    </g>
    <g id="text_7">
     <!-- sim -->
     <g transform="translate(211.864063 146.356562) scale(0.1 -0.1)">
      <defs>
       <path id="DejaVuSans-73" d="M 2834 3397 
L 2834 2853 
Q 2591 2978 2328 3040 
Q 2066 3103 1784 3103 
Q 1356 3103 1142 2972 
Q 928 2841 928 2578 
Q 928 2378 1081 2264 
Q 1234 2150 1697 2047 
L 1894 2003 
Q 2506 1872 2764 1633 
Q 3022 1394 3022 966 
Q 3022 478 2636 193 
Q 2250 -91 1575 -91 
Q 1294 -91 989 -36 
Q 684 19 347 128 
L 347 722 
Q 666 556 975 473 
Q 1284 391 1588 391 
Q 1994 391 2212 530 
Q 2431 669 2431 922 
Q 2431 1156 2273 1281 
Q 2116 1406 1581 1522 
L 1381 1569 
Q 847 1681 609 1914 
Q 372 2147 372 2553 
Q 372 3047 722 3315 
Q 1072 3584 1716 3584 
Q 2034 3584 2315 3537 
Q 2597 3491 2834 3397 
z
" transform="scale(0.015625)"/>
       <path id="DejaVuSans-69" d="M 603 3500 
L 1178 3500 
L 1178 0 
L 603 0 
L 603 3500 
z
M 603 4863 
L 1178 4863 
L 1178 4134 
L 603 4134 
L 603 4863 
z
" transform="scale(0.015625)"/>
       <path id="DejaVuSans-6d" d="M 3328 2828 
Q 3544 3216 3844 3400 
Q 4144 3584 4550 3584 
Q 5097 3584 5394 3201 
Q 5691 2819 5691 2113 
L 5691 0 
L 5113 0 
L 5113 2094 
Q 5113 2597 4934 2840 
Q 4756 3084 4391 3084 
Q 3944 3084 3684 2787 
Q 3425 2491 3425 1978 
L 3425 0 
L 2847 0 
L 2847 2094 
Q 2847 2600 2669 2842 
Q 2491 3084 2119 3084 
Q 1678 3084 1418 2786 
Q 1159 2488 1159 1978 
L 1159 0 
L 581 0 
L 581 3500 
L 1159 3500 
L 1159 2956 
Q 1356 3278 1631 3431 
Q 1906 3584 2284 3584 
Q 2666 3584 2933 3390 
Q 3200 3197 3328 2828 
z
" transform="scale(0.015625)"/>
      </defs>
      <use xlink:href="#DejaVuSans-73"/>
      <use xlink:href="#DejaVuSans-69" x="52.099609"/>
      <use xlink:href="#DejaVuSans-6d" x="79.882812"/>
     </g>
    </g>
   </g>
   <g id="matplotlib.axis_2">
    <g id="ytick_1">
     <g id="line2d_7">
      <defs>
       <path id="m248b928146" d="M 0 0 
L -3.5 0 
" style="stroke: #000000; stroke-width: 0.8"/>
      </defs>
      <g>
       <use xlink:href="#m248b928146" x="53.328125" y="66.416595" style="stroke: #000000; stroke-width: 0.8"/>
      </g>
     </g>
     <g id="text_8">
      <!-- 500 -->
      <g transform="translate(27.240625 70.215814) scale(0.1 -0.1)">
       <defs>
        <path id="DejaVuSans-35" d="M 691 4666 
L 3169 4666 
L 3169 4134 
L 1269 4134 
L 1269 2991 
Q 1406 3038 1543 3061 
Q 1681 3084 1819 3084 
Q 2600 3084 3056 2656 
Q 3513 2228 3513 1497 
Q 3513 744 3044 326 
Q 2575 -91 1722 -91 
Q 1428 -91 1123 -41 
Q 819 9 494 109 
L 494 744 
Q 775 591 1075 516 
Q 1375 441 1709 441 
Q 2250 441 2565 725 
Q 2881 1009 2881 1497 
Q 2881 1984 2565 2268 
Q 2250 2553 1709 2553 
Q 1456 2553 1204 2497 
Q 953 2441 691 2322 
L 691 4666 
z
" transform="scale(0.015625)"/>
       </defs>
       <use xlink:href="#DejaVuSans-35"/>
       <use xlink:href="#DejaVuSans-30" x="63.623047"/>
       <use xlink:href="#DejaVuSans-30" x="127.246094"/>
      </g>
     </g>
    </g>
    <g id="ytick_2">
     <g id="line2d_8">
      <g>
       <use xlink:href="#m248b928146" x="53.328125" y="14.75319" style="stroke: #000000; stroke-width: 0.8"/>
      </g>
     </g>
     <g id="text_9">
      <!-- 1000 -->
      <g transform="translate(20.878125 18.552409) scale(0.1 -0.1)">
       <use xlink:href="#DejaVuSans-31"/>
       <use xlink:href="#DejaVuSans-30" x="63.623047"/>
       <use xlink:href="#DejaVuSans-30" x="127.246094"/>
       <use xlink:href="#DejaVuSans-30" x="190.869141"/>
      </g>
     </g>
    </g>
    <g id="text_10">
     <!-- Count -->
     <g transform="translate(14.798438 77.488437) rotate(-90) scale(0.1 -0.1)">
      <defs>
       <path id="DejaVuSans-43" d="M 4122 4306 
L 4122 3641 
Q 3803 3938 3442 4084 
Q 3081 4231 2675 4231 
Q 1875 4231 1450 3742 
Q 1025 3253 1025 2328 
Q 1025 1406 1450 917 
Q 1875 428 2675 428 
Q 3081 428 3442 575 
Q 3803 722 4122 1019 
L 4122 359 
Q 3791 134 3420 21 
Q 3050 -91 2638 -91 
Q 1578 -91 968 557 
Q 359 1206 359 2328 
Q 359 3453 968 4101 
Q 1578 4750 2638 4750 
Q 3056 4750 3426 4639 
Q 3797 4528 4122 4306 
z
" transform="scale(0.015625)"/>
       <path id="DejaVuSans-6f" d="M 1959 3097 
Q 1497 3097 1228 2736 
Q 959 2375 959 1747 
Q 959 1119 1226 758 
Q 1494 397 1959 397 
Q 2419 397 2687 759 
Q 2956 1122 2956 1747 
Q 2956 2369 2687 2733 
Q 2419 3097 1959 3097 
z
M 1959 3584 
Q 2709 3584 3137 3096 
Q 3566 2609 3566 1747 
Q 3566 888 3137 398 
Q 2709 -91 1959 -91 
Q 1206 -91 779 398 
Q 353 888 353 1747 
Q 353 2609 779 3096 
Q 1206 3584 1959 3584 
z
" transform="scale(0.015625)"/>
       <path id="DejaVuSans-75" d="M 544 1381 
L 544 3500 
L 1119 3500 
L 1119 1403 
Q 1119 906 1312 657 
Q 1506 409 1894 409 
Q 2359 409 2629 706 
Q 2900 1003 2900 1516 
L 2900 3500 
L 3475 3500 
L 3475 0 
L 2900 0 
L 2900 538 
Q 2691 219 2414 64 
Q 2138 -91 1772 -91 
Q 1169 -91 856 284 
Q 544 659 544 1381 
z
M 1991 3584 
L 1991 3584 
z
" transform="scale(0.015625)"/>
       <path id="DejaVuSans-6e" d="M 3513 2113 
L 3513 0 
L 2938 0 
L 2938 2094 
Q 2938 2591 2744 2837 
Q 2550 3084 2163 3084 
Q 1697 3084 1428 2787 
Q 1159 2491 1159 1978 
L 1159 0 
L 581 0 
L 581 3500 
L 1159 3500 
L 1159 2956 
Q 1366 3272 1645 3428 
Q 1925 3584 2291 3584 
Q 2894 3584 3203 3211 
Q 3513 2838 3513 2113 
z
" transform="scale(0.015625)"/>
       <path id="DejaVuSans-74" d="M 1172 4494 
L 1172 3500 
L 2356 3500 
L 2356 3053 
L 1172 3053 
L 1172 1153 
Q 1172 725 1289 603 
Q 1406 481 1766 481 
L 2356 481 
L 2356 0 
L 1766 0 
Q 1100 0 847 248 
Q 594 497 594 1153 
L 594 3053 
L 172 3053 
L 172 3500 
L 594 3500 
L 594 4494 
L 1172 4494 
z
" transform="scale(0.015625)"/>
      </defs>
      <use xlink:href="#DejaVuSans-43"/>
      <use xlink:href="#DejaVuSans-6f" x="69.824219"/>
      <use xlink:href="#DejaVuSans-75" x="131.005859"/>
      <use xlink:href="#DejaVuSans-6e" x="194.384766"/>
      <use xlink:href="#DejaVuSans-74" x="257.763672"/>
     </g>
    </g>
   </g>
   <g id="patch_41">
    <path d="M 53.328125 118.08 
L 53.328125 7.2 
" style="fill: none; stroke: #000000; stroke-width: 0.8; stroke-linejoin: miter; stroke-linecap: square"/>
   </g>
   <g id="patch_42">
    <path d="M 53.328125 118.08 
L 388.128125 118.08 
" style="fill: none; stroke: #000000; stroke-width: 0.8; stroke-linejoin: miter; stroke-linecap: square"/>
   </g>
  </g>
 </g>
 <defs>
  <clipPath id="pfc05a2194c">
   <rect x="53.328125" y="7.2" width="334.8" height="110.88"/>
  </clipPath>
 </defs>
</svg>
