<?xml version="1.0" encoding="utf-8" standalone="no"?>
<!DOCTYPE svg PUBLIC "-//W3C//DTD SVG 1.1//EN"
  "http://www.w3.org/Graphics/SVG/1.1/DTD/svg11.dtd">
<svg xmlns:xlink="http://www.w3.org/1999/xlink" width="487.840625pt" height="281.9125pt" viewBox="0 0 487.840625 281.9125" xmlns="http://www.w3.org/2000/svg" version="1.1">
 <metadata>
  <rdf:RDF xmlns:dc="http://purl.org/dc/elements/1.1/" xmlns:cc="http://creativecommons.org/ns#" xmlns:rdf="http://www.w3.org/1999/02/22-rdf-syntax-ns#">
   <cc:Work>
    <dc:type rdf:resource="http://purl.org/dc/dcmitype/StillImage"/>
    <dc:date>2025-12-24T13:13:14.243013</dc:date>
    <dc:format>image/svg+xml</dc:format>
    <dc:creator>
     <cc:Agent>
      <dc:title>Matplotlib v3.9.4, https://matplotlib.org/</dc:title>
     </cc:Agent>
    </dc:creator>
   </cc:Work>
  </rdf:RDF>
 </metadata>
 <defs>
  <style type="text/css">*{stroke-linejoin: round; stroke-linecap: butt}</style>
 </defs>
 <g id="figure_1">
  <g id="patch_1">
   <path d="M 0 281.9125 
L 487.840625 281.9125 
L 487.840625 0 
L 0 0 
z
" style="fill: #ffffff"/>
  </g>
  <g id="axes_1">
   <g id="patch_2">
    <path d="M 34.240625 244.078125 
L 480.640625 244.078125 
L 480.640625 22.318125 
L 34.240625 22.318125 
z
" style="fill: #ffffff"/>
   </g>
   <g id="matplotlib.axis_1">
    <g id="xtick_1">
     <g id="line2d_1">
      <defs>
       <path id="m0e21b38740" d="M 0 0 
L 0 3.5 
" style="stroke: #000000; stroke-width: 0.8"/>
      </defs>
      <g>
       <use xlink:href="#m0e21b38740" x="56.560625" y="244.078125" style="stroke: #000000; stroke-width: 0.8"/>
      </g>
     </g>
     <g id="text_1">
      <!-- Isocortex -->
      <g transform="translate(33.648906 258.676563) scale(0.1 -0.1)">
       <defs>
        <path id="DejaVuSans-49" d="M 628 4666 
L 1259 4666 
L 1259 0 
L 628 0 
L 628 4666 
z
" transform="scale(0.015625)"/>
        <path id="DejaVuSans-73" d="M 2834 3397 
L 2834 2853 
Q 2591 2978 2328 3040 
Q 2066 3103 1784 3103 
Q 1356 3103 1142 2972 
Q 928 2841 928 2578 
Q 928 2378 1081 2264 
Q 1234 2150 1697 2047 
L 1894 2003 
Q 2506 1872 2764 1633 
Q 3022 1394 3022 966 
Q 3022 478 2636 193 
Q 2250 -91 1575 -91 
Q 1294 -91 989 -36 
Q 684 19 347 128 
L 347 722 
Q 666 556 975 473 
Q 1284 391 1588 391 
Q 1994 391 2212 530 
Q 2431 669 2431 922 
Q 2431 1156 2273 1281 
Q 2116 1406 1581 1522 
L 1381 1569 
Q 847 1681 609 1914 
Q 372 2147 372 2553 
Q 372 3047 722 3315 
Q 1072 3584 1716 3584 
Q 2034 3584 2315 3537 
Q 2597 3491 2834 3397 
z
" transform="scale(0.015625)"/>
        <path id="DejaVuSans-6f" d="M 1959 3097 
Q 1497 3097 1228 2736 
Q 959 2375 959 1747 
Q 959 1119 1226 758 
Q 1494 397 1959 397 
Q 2419 397 2687 759 
Q 2956 1122 2956 1747 
Q 2956 2369 2687 2733 
Q 2419 3097 1959 3097 
z
M 1959 3584 
Q 2709 3584 3137 3096 
Q 3566 2609 3566 1747 
Q 3566 888 3137 398 
Q 2709 -91 1959 -91 
Q 1206 -91 779 398 
Q 353 888 353 1747 
Q 353 2609 779 3096 
Q 1206 3584 1959 3584 
z
" transform="scale(0.015625)"/>
        <path id="DejaVuSans-63" d="M 3122 3366 
L 3122 2828 
Q 2878 2963 2633 3030 
Q 2388 3097 2138 3097 
Q 1578 3097 1268 2742 
Q 959 2388 959 1747 
Q 959 1106 1268 751 
Q 1578 397 2138 397 
Q 2388 397 2633 464 
Q 2878 531 3122 666 
L 3122 134 
Q 2881 22 2623 -34 
Q 2366 -91 2075 -91 
Q 1284 -91 818 406 
Q 353 903 353 1747 
Q 353 2603 823 3093 
Q 1294 3584 2113 3584 
Q 2378 3584 2631 3529 
Q 2884 3475 3122 3366 
z
" transform="scale(0.015625)"/>
        <path id="DejaVuSans-72" d="M 2631 2963 
Q 2534 3019 2420 3045 
Q 2306 3072 2169 3072 
Q 1681 3072 1420 2755 
Q 1159 2438 1159 1844 
L 1159 0 
L 581 0 
L 581 3500 
L 1159 3500 
L 1159 2956 
Q 1341 3275 1631 3429 
Q 1922 3584 2338 3584 
Q 2397 3584 2469 3576 
Q 2541 3569 2628 3553 
L 2631 2963 
z
" transform="scale(0.015625)"/>
        <path id="DejaVuSans-74" d="M 1172 4494 
L 1172 3500 
L 2356 3500 
L 2356 3053 
L 1172 3053 
L 1172 1153 
Q 1172 725 1289 603 
Q 1406 481 1766 481 
L 2356 481 
L 2356 0 
L 1766 0 
Q 1100 0 847 248 
Q 594 497 594 1153 
L 594 3053 
L 172 3053 
L 172 3500 
L 594 3500 
L 594 4494 
L 1172 4494 
z
" transform="scale(0.015625)"/>
        <path id="DejaVuSans-65" d="M 3597 1894 
L 3597 1613 
L 953 1613 
Q 991 1019 1311 708 
Q 1631 397 2203 397 
Q 2534 397 2845 478 
Q 3156 559 3463 722 
L 3463 178 
Q 3153 47 2828 -22 
Q 2503 -91 2169 -91 
Q 1331 -91 842 396 
Q 353 884 353 1716 
Q 353 2575 817 3079 
Q 1281 3584 2069 3584 
Q 2775 3584 3186 3129 
Q 3597 2675 3597 1894 
z
M 3022 2063 
Q 3016 2534 2758 2815 
Q 2500 3097 2075 3097 
Q 1594 3097 1305 2825 
Q 1016 2553 972 2059 
L 3022 2063 
z
" transform="scale(0.015625)"/>
        <path id="DejaVuSans-78" d="M 3513 3500 
L 2247 1797 
L 3578 0 
L 2900 0 
L 1881 1375 
L 863 0 
L 184 0 
L 1544 1831 
L 300 3500 
L 978 3500 
L 1906 2253 
L 2834 3500 
L 3513 3500 
z
" transform="scale(0.015625)"/>
       </defs>
       <use xlink:href="#DejaVuSans-49"/>
       <use xlink:href="#DejaVuSans-73" x="29.492188"/>
       <use xlink:href="#DejaVuSans-6f" x="81.591797"/>
       <use xlink:href="#DejaVuSans-63" x="142.773438"/>
       <use xlink:href="#DejaVuSans-6f" x="197.753906"/>
       <use xlink:href="#DejaVuSans-72" x="258.935547"/>
       <use xlink:href="#DejaVuSans-74" x="300.048828"/>
       <use xlink:href="#DejaVuSans-65" x="339.257812"/>
       <use xlink:href="#DejaVuSans-78" x="399.03125"/>
      </g>
     </g>
    </g>
    <g id="xtick_2">
     <g id="line2d_2">
      <g>
       <use xlink:href="#m0e21b38740" x="101.200625" y="244.078125" style="stroke: #000000; stroke-width: 0.8"/>
      </g>
     </g>
     <g id="text_2">
      <!-- OLF -->
      <g transform="translate(91.602969 258.676563) scale(0.1 -0.1)">
       <defs>
        <path id="DejaVuSans-4f" d="M 2522 4238 
Q 1834 4238 1429 3725 
Q 1025 3213 1025 2328 
Q 1025 1447 1429 934 
Q 1834 422 2522 422 
Q 3209 422 3611 934 
Q 4013 1447 4013 2328 
Q 4013 3213 3611 3725 
Q 3209 4238 2522 4238 
z
M 2522 4750 
Q 3503 4750 4090 4092 
Q 4678 3434 4678 2328 
Q 4678 1225 4090 567 
Q 3503 -91 2522 -91 
Q 1538 -91 948 565 
Q 359 1222 359 2328 
Q 359 3434 948 4092 
Q 1538 4750 2522 4750 
z
" transform="scale(0.015625)"/>
        <path id="DejaVuSans-4c" d="M 628 4666 
L 1259 4666 
L 1259 531 
L 3531 531 
L 3531 0 
L 628 0 
L 628 4666 
z
" transform="scale(0.015625)"/>
        <path id="DejaVuSans-46" d="M 628 4666 
L 3309 4666 
L 3309 4134 
L 1259 4134 
L 1259 2759 
L 3109 2759 
L 3109 2228 
L 1259 2228 
L 1259 0 
L 628 0 
L 628 4666 
z
" transform="scale(0.015625)"/>
       </defs>
       <use xlink:href="#DejaVuSans-4f"/>
       <use xlink:href="#DejaVuSans-4c" x="78.710938"/>
       <use xlink:href="#DejaVuSans-46" x="134.423828"/>
      </g>
     </g>
    </g>
    <g id="xtick_3">
     <g id="line2d_3">
      <g>
       <use xlink:href="#m0e21b38740" x="145.840625" y="244.078125" style="stroke: #000000; stroke-width: 0.8"/>
      </g>
     </g>
     <g id="text_3">
      <!-- STR -->
      <g transform="translate(136.138281 258.676563) scale(0.1 -0.1)">
       <defs>
        <path id="DejaVuSans-53" d="M 3425 4513 
L 3425 3897 
Q 3066 4069 2747 4153 
Q 2428 4238 2131 4238 
Q 1616 4238 1336 4038 
Q 1056 3838 1056 3469 
Q 1056 3159 1242 3001 
Q 1428 2844 1947 2747 
L 2328 2669 
Q 3034 2534 3370 2195 
Q 3706 1856 3706 1288 
Q 3706 609 3251 259 
Q 2797 -91 1919 -91 
Q 1588 -91 1214 -16 
Q 841 59 441 206 
L 441 856 
Q 825 641 1194 531 
Q 1563 422 1919 422 
Q 2459 422 2753 634 
Q 3047 847 3047 1241 
Q 3047 1584 2836 1778 
Q 2625 1972 2144 2069 
L 1759 2144 
Q 1053 2284 737 2584 
Q 422 2884 422 3419 
Q 422 4038 858 4394 
Q 1294 4750 2059 4750 
Q 2388 4750 2728 4690 
Q 3069 4631 3425 4513 
z
" transform="scale(0.015625)"/>
        <path id="DejaVuSans-54" d="M -19 4666 
L 3928 4666 
L 3928 4134 
L 2272 4134 
L 2272 0 
L 1638 0 
L 1638 4134 
L -19 4134 
L -19 4666 
z
" transform="scale(0.015625)"/>
        <path id="DejaVuSans-52" d="M 2841 2188 
Q 3044 2119 3236 1894 
Q 3428 1669 3622 1275 
L 4263 0 
L 3584 0 
L 2988 1197 
Q 2756 1666 2539 1819 
Q 2322 1972 1947 1972 
L 1259 1972 
L 1259 0 
L 628 0 
L 628 4666 
L 2053 4666 
Q 2853 4666 3247 4331 
Q 3641 3997 3641 3322 
Q 3641 2881 3436 2590 
Q 3231 2300 2841 2188 
z
M 1259 4147 
L 1259 2491 
L 2053 2491 
Q 2509 2491 2742 2702 
Q 2975 2913 2975 3322 
Q 2975 3731 2742 3939 
Q 2509 4147 2053 4147 
L 1259 4147 
z
" transform="scale(0.015625)"/>
       </defs>
       <use xlink:href="#DejaVuSans-53"/>
       <use xlink:href="#DejaVuSans-54" x="63.476562"/>
       <use xlink:href="#DejaVuSans-52" x="124.560547"/>
      </g>
     </g>
    </g>
    <g id="xtick_4">
     <g id="line2d_4">
      <g>
       <use xlink:href="#m0e21b38740" x="190.480625" y="244.078125" style="stroke: #000000; stroke-width: 0.8"/>
      </g>
     </g>
     <g id="text_4">
      <!-- HY -->
      <g transform="translate(183.666563 258.676563) scale(0.1 -0.1)">
       <defs>
        <path id="DejaVuSans-48" d="M 628 4666 
L 1259 4666 
L 1259 2753 
L 3553 2753 
L 3553 4666 
L 4184 4666 
L 4184 0 
L 3553 0 
L 3553 2222 
L 1259 2222 
L 1259 0 
L 628 0 
L 628 4666 
z
" transform="scale(0.015625)"/>
        <path id="DejaVuSans-59" d="M -13 4666 
L 666 4666 
L 1959 2747 
L 3244 4666 
L 3922 4666 
L 2272 2222 
L 2272 0 
L 1638 0 
L 1638 2222 
L -13 4666 
z
" transform="scale(0.015625)"/>
       </defs>
       <use xlink:href="#DejaVuSans-48"/>
       <use xlink:href="#DejaVuSans-59" x="75.195312"/>
      </g>
     </g>
    </g>
    <g id="xtick_5">
     <g id="line2d_5">
      <g>
       <use xlink:href="#m0e21b38740" x="235.120625" y="244.078125" style="stroke: #000000; stroke-width: 0.8"/>
      </g>
     </g>
     <g id="text_5">
      <!-- MB -->
      <g transform="translate(227.376094 258.676563) scale(0.1 -0.1)">
       <defs>
        <path id="DejaVuSans-4d" d="M 628 4666 
L 1569 4666 
L 2759 1491 
L 3956 4666 
L 4897 4666 
L 4897 0 
L 4281 0 
L 4281 4097 
L 3078 897 
L 2444 897 
L 1241 4097 
L 1241 0 
L 628 0 
L 628 4666 
z
" transform="scale(0.015625)"/>
        <path id="DejaVuSans-42" d="M 1259 2228 
L 1259 519 
L 2272 519 
Q 2781 519 3026 730 
Q 3272 941 3272 1375 
Q 3272 1813 3026 2020 
Q 2781 2228 2272 2228 
L 1259 2228 
z
M 1259 4147 
L 1259 2741 
L 2194 2741 
Q 2656 2741 2882 2914 
Q 3109 3088 3109 3444 
Q 3109 3797 2882 3972 
Q 2656 4147 2194 4147 
L 1259 4147 
z
M 628 4666 
L 2241 4666 
Q 2963 4666 3353 4366 
Q 3744 4066 3744 3513 
Q 3744 3084 3544 2831 
Q 3344 2578 2956 2516 
Q 3422 2416 3680 2098 
Q 3938 1781 3938 1306 
Q 3938 681 3513 340 
Q 3088 0 2303 0 
L 628 0 
L 628 4666 
z
" transform="scale(0.015625)"/>
       </defs>
       <use xlink:href="#DejaVuSans-4d"/>
       <use xlink:href="#DejaVuSans-42" x="86.279297"/>
      </g>
     </g>
    </g>
    <g id="xtick_6">
     <g id="line2d_6">
      <g>
       <use xlink:href="#m0e21b38740" x="279.760625" y="244.078125" style="stroke: #000000; stroke-width: 0.8"/>
      </g>
     </g>
     <g id="text_6">
      <!-- P -->
      <g transform="translate(276.745781 258.676563) scale(0.1 -0.1)">
       <defs>
        <path id="DejaVuSans-50" d="M 1259 4147 
L 1259 2394 
L 2053 2394 
Q 2494 2394 2734 2622 
Q 2975 2850 2975 3272 
Q 2975 3691 2734 3919 
Q 2494 4147 2053 4147 
L 1259 4147 
z
M 628 4666 
L 2053 4666 
Q 2838 4666 3239 4311 
Q 3641 3956 3641 3272 
Q 3641 2581 3239 2228 
Q 2838 1875 2053 1875 
L 1259 1875 
L 1259 0 
L 628 0 
L 628 4666 
z
" transform="scale(0.015625)"/>
       </defs>
       <use xlink:href="#DejaVuSans-50"/>
      </g>
     </g>
    </g>
    <g id="xtick_7">
     <g id="line2d_7">
      <g>
       <use xlink:href="#m0e21b38740" x="324.400625" y="244.078125" style="stroke: #000000; stroke-width: 0.8"/>
      </g>
     </g>
     <g id="text_7">
      <!-- CTXsp -->
      <g transform="translate(308.651406 258.676563) scale(0.1 -0.1)">
       <defs>
        <path id="DejaVuSans-43" d="M 4122 4306 
L 4122 3641 
Q 3803 3938 3442 4084 
Q 3081 4231 2675 4231 
Q 1875 4231 1450 3742 
Q 1025 3253 1025 2328 
Q 1025 1406 1450 917 
Q 1875 428 2675 428 
Q 3081 428 3442 575 
Q 3803 722 4122 1019 
L 4122 359 
Q 3791 134 3420 21 
Q 3050 -91 2638 -91 
Q 1578 -91 968 557 
Q 359 1206 359 2328 
Q 359 3453 968 4101 
Q 1578 4750 2638 4750 
Q 3056 4750 3426 4639 
Q 3797 4528 4122 4306 
z
" transform="scale(0.015625)"/>
        <path id="DejaVuSans-58" d="M 403 4666 
L 1081 4666 
L 2241 2931 
L 3406 4666 
L 4084 4666 
L 2584 2425 
L 4184 0 
L 3506 0 
L 2194 1984 
L 872 0 
L 191 0 
L 1856 2491 
L 403 4666 
z
" transform="scale(0.015625)"/>
        <path id="DejaVuSans-70" d="M 1159 525 
L 1159 -1331 
L 581 -1331 
L 581 3500 
L 1159 3500 
L 1159 2969 
Q 1341 3281 1617 3432 
Q 1894 3584 2278 3584 
Q 2916 3584 3314 3078 
Q 3713 2572 3713 1747 
Q 3713 922 3314 415 
Q 2916 -91 2278 -91 
Q 1894 -91 1617 61 
Q 1341 213 1159 525 
z
M 3116 1747 
Q 3116 2381 2855 2742 
Q 2594 3103 2138 3103 
Q 1681 3103 1420 2742 
Q 1159 2381 1159 1747 
Q 1159 1113 1420 752 
Q 1681 391 2138 391 
Q 2594 391 2855 752 
Q 3116 1113 3116 1747 
z
" transform="scale(0.015625)"/>
       </defs>
       <use xlink:href="#DejaVuSans-43"/>
       <use xlink:href="#DejaVuSans-54" x="69.824219"/>
       <use xlink:href="#DejaVuSans-58" x="130.908203"/>
       <use xlink:href="#DejaVuSans-73" x="199.414062"/>
       <use xlink:href="#DejaVuSans-70" x="251.513672"/>
      </g>
     </g>
    </g>
    <g id="xtick_8">
     <g id="line2d_8">
      <g>
       <use xlink:href="#m0e21b38740" x="369.040625" y="244.078125" style="stroke: #000000; stroke-width: 0.8"/>
      </g>
     </g>
     <g id="text_8">
      <!-- PAL -->
      <g transform="translate(360.138281 258.676563) scale(0.1 -0.1)">
       <defs>
        <path id="DejaVuSans-41" d="M 2188 4044 
L 1331 1722 
L 3047 1722 
L 2188 4044 
z
M 1831 4666 
L 2547 4666 
L 4325 0 
L 3669 0 
L 3244 1197 
L 1141 1197 
L 716 0 
L 50 0 
L 1831 4666 
z
" transform="scale(0.015625)"/>
       </defs>
       <use xlink:href="#DejaVuSans-50"/>
       <use xlink:href="#DejaVuSans-41" x="53.927734"/>
       <use xlink:href="#DejaVuSans-4c" x="122.335938"/>
      </g>
     </g>
    </g>
    <g id="xtick_9">
     <g id="line2d_9">
      <g>
       <use xlink:href="#m0e21b38740" x="413.680625" y="244.078125" style="stroke: #000000; stroke-width: 0.8"/>
      </g>
     </g>
     <g id="text_9">
      <!-- HPF -->
      <g transform="translate(404.029844 258.676563) scale(0.1 -0.1)">
       <use xlink:href="#DejaVuSans-48"/>
       <use xlink:href="#DejaVuSans-50" x="75.195312"/>
       <use xlink:href="#DejaVuSans-46" x="135.498047"/>
      </g>
     </g>
    </g>
    <g id="xtick_10">
     <g id="line2d_10">
      <g>
       <use xlink:href="#m0e21b38740" x="458.320625" y="244.078125" style="stroke: #000000; stroke-width: 0.8"/>
      </g>
     </g>
     <g id="text_10">
      <!-- TH -->
      <g transform="translate(451.506563 258.676563) scale(0.1 -0.1)">
       <use xlink:href="#DejaVuSans-54"/>
       <use xlink:href="#DejaVuSans-48" x="61.083984"/>
      </g>
     </g>
    </g>
    <g id="text_11">
     <!-- major_region -->
     <g transform="translate(224.691406 272.354688) scale(0.1 -0.1)">
      <defs>
       <path id="DejaVuSans-6d" d="M 3328 2828 
Q 3544 3216 3844 3400 
Q 4144 3584 4550 3584 
Q 5097 3584 5394 3201 
Q 5691 2819 5691 2113 
L 5691 0 
L 5113 0 
L 5113 2094 
Q 5113 2597 4934 2840 
Q 4756 3084 4391 3084 
Q 3944 3084 3684 2787 
Q 3425 2491 3425 1978 
L 3425 0 
L 2847 0 
L 2847 2094 
Q 2847 2600 2669 2842 
Q 2491 3084 2119 3084 
Q 1678 3084 1418 2786 
Q 1159 2488 1159 1978 
L 1159 0 
L 581 0 
L 581 3500 
L 1159 3500 
L 1159 2956 
Q 1356 3278 1631 3431 
Q 1906 3584 2284 3584 
Q 2666 3584 2933 3390 
Q 3200 3197 3328 2828 
z
" transform="scale(0.015625)"/>
       <path id="DejaVuSans-61" d="M 2194 1759 
Q 1497 1759 1228 1600 
Q 959 1441 959 1056 
Q 959 750 1161 570 
Q 1363 391 1709 391 
Q 2188 391 2477 730 
Q 2766 1069 2766 1631 
L 2766 1759 
L 2194 1759 
z
M 3341 1997 
L 3341 0 
L 2766 0 
L 2766 531 
Q 2569 213 2275 61 
Q 1981 -91 1556 -91 
Q 1019 -91 701 211 
Q 384 513 384 1019 
Q 384 1609 779 1909 
Q 1175 2209 1959 2209 
L 2766 2209 
L 2766 2266 
Q 2766 2663 2505 2880 
Q 2244 3097 1772 3097 
Q 1472 3097 1187 3025 
Q 903 2953 641 2809 
L 641 3341 
Q 956 3463 1253 3523 
Q 1550 3584 1831 3584 
Q 2591 3584 2966 3190 
Q 3341 2797 3341 1997 
z
" transform="scale(0.015625)"/>
       <path id="DejaVuSans-6a" d="M 603 3500 
L 1178 3500 
L 1178 -63 
Q 1178 -731 923 -1031 
Q 669 -1331 103 -1331 
L -116 -1331 
L -116 -844 
L 38 -844 
Q 366 -844 484 -692 
Q 603 -541 603 -63 
L 603 3500 
z
M 603 4863 
L 1178 4863 
L 1178 4134 
L 603 4134 
L 603 4863 
z
" transform="scale(0.015625)"/>
       <path id="DejaVuSans-5f" d="M 3263 -1063 
L 3263 -1509 
L -63 -1509 
L -63 -1063 
L 3263 -1063 
z
" transform="scale(0.015625)"/>
       <path id="DejaVuSans-67" d="M 2906 1791 
Q 2906 2416 2648 2759 
Q 2391 3103 1925 3103 
Q 1463 3103 1205 2759 
Q 947 2416 947 1791 
Q 947 1169 1205 825 
Q 1463 481 1925 481 
Q 2391 481 2648 825 
Q 2906 1169 2906 1791 
z
M 3481 434 
Q 3481 -459 3084 -895 
Q 2688 -1331 1869 -1331 
Q 1566 -1331 1297 -1286 
Q 1028 -1241 775 -1147 
L 775 -588 
Q 1028 -725 1275 -790 
Q 1522 -856 1778 -856 
Q 2344 -856 2625 -561 
Q 2906 -266 2906 331 
L 2906 616 
Q 2728 306 2450 153 
Q 2172 0 1784 0 
Q 1141 0 747 490 
Q 353 981 353 1791 
Q 353 2603 747 3093 
Q 1141 3584 1784 3584 
Q 2172 3584 2450 3431 
Q 2728 3278 2906 2969 
L 2906 3500 
L 3481 3500 
L 3481 434 
z
" transform="scale(0.015625)"/>
       <path id="DejaVuSans-69" d="M 603 3500 
L 1178 3500 
L 1178 0 
L 603 0 
L 603 3500 
z
M 603 4863 
L 1178 4863 
L 1178 4134 
L 603 4134 
L 603 4863 
z
" transform="scale(0.015625)"/>
       <path id="DejaVuSans-6e" d="M 3513 2113 
L 3513 0 
L 2938 0 
L 2938 2094 
Q 2938 2591 2744 2837 
Q 2550 3084 2163 3084 
Q 1697 3084 1428 2787 
Q 1159 2491 1159 1978 
L 1159 0 
L 581 0 
L 581 3500 
L 1159 3500 
L 1159 2956 
Q 1366 3272 1645 3428 
Q 1925 3584 2291 3584 
Q 2894 3584 3203 3211 
Q 3513 2838 3513 2113 
z
" transform="scale(0.015625)"/>
      </defs>
      <use xlink:href="#DejaVuSans-6d"/>
      <use xlink:href="#DejaVuSans-61" x="97.412109"/>
      <use xlink:href="#DejaVuSans-6a" x="158.691406"/>
      <use xlink:href="#DejaVuSans-6f" x="186.474609"/>
      <use xlink:href="#DejaVuSans-72" x="247.65625"/>
      <use xlink:href="#DejaVuSans-5f" x="288.769531"/>
      <use xlink:href="#DejaVuSans-72" x="338.769531"/>
      <use xlink:href="#DejaVuSans-65" x="377.632812"/>
      <use xlink:href="#DejaVuSans-67" x="439.15625"/>
      <use xlink:href="#DejaVuSans-69" x="502.632812"/>
      <use xlink:href="#DejaVuSans-6f" x="530.416016"/>
      <use xlink:href="#DejaVuSans-6e" x="591.597656"/>
     </g>
    </g>
   </g>
   <g id="matplotlib.axis_2">
    <g id="ytick_1">
     <g id="line2d_11">
      <defs>
       <path id="md231857a50" d="M 0 0 
L -3.5 0 
" style="stroke: #000000; stroke-width: 0.8"/>
      </defs>
      <g>
       <use xlink:href="#md231857a50" x="34.240625" y="210.332038" style="stroke: #000000; stroke-width: 0.8"/>
      </g>
     </g>
     <g id="text_12">
      <!-- 3 -->
      <g transform="translate(20.878125 214.131257) scale(0.1 -0.1)">
       <defs>
        <path id="DejaVuSans-33" d="M 2597 2516 
Q 3050 2419 3304 2112 
Q 3559 1806 3559 1356 
Q 3559 666 3084 287 
Q 2609 -91 1734 -91 
Q 1441 -91 1130 -33 
Q 819 25 488 141 
L 488 750 
Q 750 597 1062 519 
Q 1375 441 1716 441 
Q 2309 441 2620 675 
Q 2931 909 2931 1356 
Q 2931 1769 2642 2001 
Q 2353 2234 1838 2234 
L 1294 2234 
L 1294 2753 
L 1863 2753 
Q 2328 2753 2575 2939 
Q 2822 3125 2822 3475 
Q 2822 3834 2567 4026 
Q 2313 4219 1838 4219 
Q 1578 4219 1281 4162 
Q 984 4106 628 3988 
L 628 4550 
Q 988 4650 1302 4700 
Q 1616 4750 1894 4750 
Q 2613 4750 3031 4423 
Q 3450 4097 3450 3541 
Q 3450 3153 3228 2886 
Q 3006 2619 2597 2516 
z
" transform="scale(0.015625)"/>
       </defs>
       <use xlink:href="#DejaVuSans-33"/>
      </g>
     </g>
    </g>
    <g id="ytick_2">
     <g id="line2d_12">
      <g>
       <use xlink:href="#md231857a50" x="34.240625" y="162.123342" style="stroke: #000000; stroke-width: 0.8"/>
      </g>
     </g>
     <g id="text_13">
      <!-- 4 -->
      <g transform="translate(20.878125 165.922561) scale(0.1 -0.1)">
       <defs>
        <path id="DejaVuSans-34" d="M 2419 4116 
L 825 1625 
L 2419 1625 
L 2419 4116 
z
M 2253 4666 
L 3047 4666 
L 3047 1625 
L 3713 1625 
L 3713 1100 
L 3047 1100 
L 3047 0 
L 2419 0 
L 2419 1100 
L 313 1100 
L 313 1709 
L 2253 4666 
z
" transform="scale(0.015625)"/>
       </defs>
       <use xlink:href="#DejaVuSans-34"/>
      </g>
     </g>
    </g>
    <g id="ytick_3">
     <g id="line2d_13">
      <g>
       <use xlink:href="#md231857a50" x="34.240625" y="113.914647" style="stroke: #000000; stroke-width: 0.8"/>
      </g>
     </g>
     <g id="text_14">
      <!-- 5 -->
      <g transform="translate(20.878125 117.713865) scale(0.1 -0.1)">
       <defs>
        <path id="DejaVuSans-35" d="M 691 4666 
L 3169 4666 
L 3169 4134 
L 1269 4134 
L 1269 2991 
Q 1406 3038 1543 3061 
Q 1681 3084 1819 3084 
Q 2600 3084 3056 2656 
Q 3513 2228 3513 1497 
Q 3513 744 3044 326 
Q 2575 -91 1722 -91 
Q 1428 -91 1123 -41 
Q 819 9 494 109 
L 494 744 
Q 775 591 1075 516 
Q 1375 441 1709 441 
Q 2250 441 2565 725 
Q 2881 1009 2881 1497 
Q 2881 1984 2565 2268 
Q 2250 2553 1709 2553 
Q 1456 2553 1204 2497 
Q 953 2441 691 2322 
L 691 4666 
z
" transform="scale(0.015625)"/>
       </defs>
       <use xlink:href="#DejaVuSans-35"/>
      </g>
     </g>
    </g>
    <g id="ytick_4">
     <g id="line2d_14">
      <g>
       <use xlink:href="#md231857a50" x="34.240625" y="65.705951" style="stroke: #000000; stroke-width: 0.8"/>
      </g>
     </g>
     <g id="text_15">
      <!-- 6 -->
      <g transform="translate(20.878125 69.50517) scale(0.1 -0.1)">
       <defs>
        <path id="DejaVuSans-36" d="M 2113 2584 
Q 1688 2584 1439 2293 
Q 1191 2003 1191 1497 
Q 1191 994 1439 701 
Q 1688 409 2113 409 
Q 2538 409 2786 701 
Q 3034 994 3034 1497 
Q 3034 2003 2786 2293 
Q 2538 2584 2113 2584 
z
M 3366 4563 
L 3366 3988 
Q 3128 4100 2886 4159 
Q 2644 4219 2406 4219 
Q 1781 4219 1451 3797 
Q 1122 3375 1075 2522 
Q 1259 2794 1537 2939 
Q 1816 3084 2150 3084 
Q 2853 3084 3261 2657 
Q 3669 2231 3669 1497 
Q 3669 778 3244 343 
Q 2819 -91 2113 -91 
Q 1303 -91 875 529 
Q 447 1150 447 2328 
Q 447 3434 972 4092 
Q 1497 4750 2381 4750 
Q 2619 4750 2861 4703 
Q 3103 4656 3366 4563 
z
" transform="scale(0.015625)"/>
       </defs>
       <use xlink:href="#DejaVuSans-36"/>
      </g>
     </g>
    </g>
    <g id="text_16">
     <!-- Expectation -->
     <g transform="translate(14.798437 162.918438) rotate(-90) scale(0.1 -0.1)">
      <defs>
       <path id="DejaVuSans-45" d="M 628 4666 
L 3578 4666 
L 3578 4134 
L 1259 4134 
L 1259 2753 
L 3481 2753 
L 3481 2222 
L 1259 2222 
L 1259 531 
L 3634 531 
L 3634 0 
L 628 0 
L 628 4666 
z
" transform="scale(0.015625)"/>
      </defs>
      <use xlink:href="#DejaVuSans-45"/>
      <use xlink:href="#DejaVuSans-78" x="63.183594"/>
      <use xlink:href="#DejaVuSans-70" x="122.363281"/>
      <use xlink:href="#DejaVuSans-65" x="185.839844"/>
      <use xlink:href="#DejaVuSans-63" x="247.363281"/>
      <use xlink:href="#DejaVuSans-74" x="302.34375"/>
      <use xlink:href="#DejaVuSans-61" x="341.552734"/>
      <use xlink:href="#DejaVuSans-74" x="402.832031"/>
      <use xlink:href="#DejaVuSans-69" x="442.041016"/>
      <use xlink:href="#DejaVuSans-6f" x="469.824219"/>
      <use xlink:href="#DejaVuSans-6e" x="531.005859"/>
     </g>
    </g>
   </g>
   <g id="patch_3">
    <path d="M 38.704625 117.436891 
L 74.416625 117.436891 
L 74.416625 103.569456 
L 38.704625 103.569456 
L 38.704625 117.436891 
z
" clip-path="url(#pdc4113dbaf)" style="fill: #3274a1; stroke: #3f3f3f; stroke-linejoin: miter"/>
   </g>
   <g id="line2d_15">
    <path d="M 56.560625 117.436891 
L 56.560625 138.116638 
" clip-path="url(#pdc4113dbaf)" style="fill: none; stroke: #3f3f3f"/>
   </g>
   <g id="line2d_16">
    <path d="M 56.560625 103.569456 
L 56.560625 93.966776 
" clip-path="url(#pdc4113dbaf)" style="fill: none; stroke: #3f3f3f"/>
   </g>
   <g id="line2d_17">
    <path d="M 47.632625 138.116638 
L 65.488625 138.116638 
" clip-path="url(#pdc4113dbaf)" style="fill: none; stroke: #3f3f3f; stroke-linecap: square"/>
   </g>
   <g id="line2d_18">
    <path d="M 47.632625 93.966776 
L 65.488625 93.966776 
" clip-path="url(#pdc4113dbaf)" style="fill: none; stroke: #3f3f3f; stroke-linecap: square"/>
   </g>
   <g id="line2d_19">
    <defs>
     <path id="mfaf0e2ab8b" d="M 0 4.242641 
L 2.545584 0 
L 0 -4.242641 
L -2.545584 0 
z
" style="stroke: #000000; stroke-linejoin: miter"/>
    </defs>
    <g clip-path="url(#pdc4113dbaf)">
     <use xlink:href="#mfaf0e2ab8b" x="56.560625" y="140.447206" style="stroke: #000000; stroke-linejoin: miter"/>
     <use xlink:href="#mfaf0e2ab8b" x="56.560625" y="138.951403" style="stroke: #000000; stroke-linejoin: miter"/>
     <use xlink:href="#mfaf0e2ab8b" x="56.560625" y="139.141162" style="stroke: #000000; stroke-linejoin: miter"/>
    </g>
   </g>
   <g id="patch_4">
    <path d="M 83.344625 155.571553 
L 119.056625 155.571553 
L 119.056625 124.534443 
L 83.344625 124.534443 
L 83.344625 155.571553 
z
" clip-path="url(#pdc4113dbaf)" style="fill: #b5c8e1; stroke: #3f3f3f; stroke-linejoin: miter"/>
   </g>
   <g id="line2d_20">
    <path d="M 101.200625 155.571553 
L 101.200625 175.485661 
" clip-path="url(#pdc4113dbaf)" style="fill: none; stroke: #3f3f3f"/>
   </g>
   <g id="line2d_21">
    <path d="M 101.200625 124.534443 
L 101.200625 116.367857 
" clip-path="url(#pdc4113dbaf)" style="fill: none; stroke: #3f3f3f"/>
   </g>
   <g id="line2d_22">
    <path d="M 92.272625 175.485661 
L 110.128625 175.485661 
" clip-path="url(#pdc4113dbaf)" style="fill: none; stroke: #3f3f3f; stroke-linecap: square"/>
   </g>
   <g id="line2d_23">
    <path d="M 92.272625 116.367857 
L 110.128625 116.367857 
" clip-path="url(#pdc4113dbaf)" style="fill: none; stroke: #3f3f3f; stroke-linecap: square"/>
   </g>
   <g id="line2d_24"/>
   <g id="patch_5">
    <path d="M 127.984625 153.043634 
L 163.696625 153.043634 
L 163.696625 117.831507 
L 127.984625 117.831507 
L 127.984625 153.043634 
z
" clip-path="url(#pdc4113dbaf)" style="fill: #e1812c; stroke: #3f3f3f; stroke-linejoin: miter"/>
   </g>
   <g id="line2d_25">
    <path d="M 145.840625 153.043634 
L 145.840625 181.562766 
" clip-path="url(#pdc4113dbaf)" style="fill: none; stroke: #3f3f3f"/>
   </g>
   <g id="line2d_26">
    <path d="M 145.840625 117.831507 
L 145.840625 111.82526 
" clip-path="url(#pdc4113dbaf)" style="fill: none; stroke: #3f3f3f"/>
   </g>
   <g id="line2d_27">
    <path d="M 136.912625 181.562766 
L 154.768625 181.562766 
" clip-path="url(#pdc4113dbaf)" style="fill: none; stroke: #3f3f3f; stroke-linecap: square"/>
   </g>
   <g id="line2d_28">
    <path d="M 136.912625 111.82526 
L 154.768625 111.82526 
" clip-path="url(#pdc4113dbaf)" style="fill: none; stroke: #3f3f3f; stroke-linecap: square"/>
   </g>
   <g id="line2d_29"/>
   <g id="patch_6">
    <path d="M 172.624625 194.119254 
L 208.336625 194.119254 
L 208.336625 158.763916 
L 172.624625 158.763916 
L 172.624625 194.119254 
z
" clip-path="url(#pdc4113dbaf)" style="fill: #eebb89; stroke: #3f3f3f; stroke-linejoin: miter"/>
   </g>
   <g id="line2d_30">
    <path d="M 190.480625 194.119254 
L 190.480625 221.384344 
" clip-path="url(#pdc4113dbaf)" style="fill: none; stroke: #3f3f3f"/>
   </g>
   <g id="line2d_31">
    <path d="M 190.480625 158.763916 
L 190.480625 130.525582 
" clip-path="url(#pdc4113dbaf)" style="fill: none; stroke: #3f3f3f"/>
   </g>
   <g id="line2d_32">
    <path d="M 181.552625 221.384344 
L 199.408625 221.384344 
" clip-path="url(#pdc4113dbaf)" style="fill: none; stroke: #3f3f3f; stroke-linecap: square"/>
   </g>
   <g id="line2d_33">
    <path d="M 181.552625 130.525582 
L 199.408625 130.525582 
" clip-path="url(#pdc4113dbaf)" style="fill: none; stroke: #3f3f3f; stroke-linecap: square"/>
   </g>
   <g id="line2d_34">
    <g clip-path="url(#pdc4113dbaf)">
     <use xlink:href="#mfaf0e2ab8b" x="190.480625" y="91.408715" style="stroke: #000000; stroke-linejoin: miter"/>
    </g>
   </g>
   <g id="patch_7">
    <path d="M 217.264625 176.554412 
L 252.976625 176.554412 
L 252.976625 151.128833 
L 217.264625 151.128833 
L 217.264625 176.554412 
z
" clip-path="url(#pdc4113dbaf)" style="fill: #845b53; stroke: #3f3f3f; stroke-linejoin: miter"/>
   </g>
   <g id="line2d_35">
    <path d="M 235.120625 176.554412 
L 235.120625 183.7475 
" clip-path="url(#pdc4113dbaf)" style="fill: none; stroke: #3f3f3f"/>
   </g>
   <g id="line2d_36">
    <path d="M 235.120625 151.128833 
L 235.120625 138.141928 
" clip-path="url(#pdc4113dbaf)" style="fill: none; stroke: #3f3f3f"/>
   </g>
   <g id="line2d_37">
    <path d="M 226.192625 183.7475 
L 244.048625 183.7475 
" clip-path="url(#pdc4113dbaf)" style="fill: none; stroke: #3f3f3f; stroke-linecap: square"/>
   </g>
   <g id="line2d_38">
    <path d="M 226.192625 138.141928 
L 244.048625 138.141928 
" clip-path="url(#pdc4113dbaf)" style="fill: none; stroke: #3f3f3f; stroke-linecap: square"/>
   </g>
   <g id="line2d_39"/>
   <g id="patch_8">
    <path d="M 261.904625 195.830812 
L 297.616625 195.830812 
L 297.616625 163.670782 
L 261.904625 163.670782 
L 261.904625 195.830812 
z
" clip-path="url(#pdc4113dbaf)" style="fill: #9fd495; stroke: #3f3f3f; stroke-linejoin: miter"/>
   </g>
   <g id="line2d_40">
    <path d="M 279.760625 195.830812 
L 279.760625 206.492407 
" clip-path="url(#pdc4113dbaf)" style="fill: none; stroke: #3f3f3f"/>
   </g>
   <g id="line2d_41">
    <path d="M 279.760625 163.670782 
L 279.760625 151.52545 
" clip-path="url(#pdc4113dbaf)" style="fill: none; stroke: #3f3f3f"/>
   </g>
   <g id="line2d_42">
    <path d="M 270.832625 206.492407 
L 288.688625 206.492407 
" clip-path="url(#pdc4113dbaf)" style="fill: none; stroke: #3f3f3f; stroke-linecap: square"/>
   </g>
   <g id="line2d_43">
    <path d="M 270.832625 151.52545 
L 288.688625 151.52545 
" clip-path="url(#pdc4113dbaf)" style="fill: none; stroke: #3f3f3f; stroke-linecap: square"/>
   </g>
   <g id="line2d_44"/>
   <g id="patch_9">
    <path d="M 306.544625 135.454096 
L 342.256625 135.454096 
L 342.256625 123.27659 
L 306.544625 123.27659 
L 306.544625 135.454096 
z
" clip-path="url(#pdc4113dbaf)" style="fill: #c03d3e; stroke: #3f3f3f; stroke-linejoin: miter"/>
   </g>
   <g id="line2d_45">
    <path d="M 324.400625 135.454096 
L 324.400625 140.178295 
" clip-path="url(#pdc4113dbaf)" style="fill: none; stroke: #3f3f3f"/>
   </g>
   <g id="line2d_46">
    <path d="M 324.400625 123.27659 
L 324.400625 110.206455 
" clip-path="url(#pdc4113dbaf)" style="fill: none; stroke: #3f3f3f"/>
   </g>
   <g id="line2d_47">
    <path d="M 315.472625 140.178295 
L 333.328625 140.178295 
" clip-path="url(#pdc4113dbaf)" style="fill: none; stroke: #3f3f3f; stroke-linecap: square"/>
   </g>
   <g id="line2d_48">
    <path d="M 315.472625 110.206455 
L 333.328625 110.206455 
" clip-path="url(#pdc4113dbaf)" style="fill: none; stroke: #3f3f3f; stroke-linecap: square"/>
   </g>
   <g id="line2d_49"/>
   <g id="patch_10">
    <path d="M 351.184625 146.985045 
L 386.896625 146.985045 
L 386.896625 129.796571 
L 351.184625 129.796571 
L 351.184625 146.985045 
z
" clip-path="url(#pdc4113dbaf)" style="fill: #f2a5a3; stroke: #3f3f3f; stroke-linejoin: miter"/>
   </g>
   <g id="line2d_50">
    <path d="M 369.040625 146.985045 
L 369.040625 149.799315 
" clip-path="url(#pdc4113dbaf)" style="fill: none; stroke: #3f3f3f"/>
   </g>
   <g id="line2d_51">
    <path d="M 369.040625 129.796571 
L 369.040625 122.737608 
" clip-path="url(#pdc4113dbaf)" style="fill: none; stroke: #3f3f3f"/>
   </g>
   <g id="line2d_52">
    <path d="M 360.112625 149.799315 
L 377.968625 149.799315 
" clip-path="url(#pdc4113dbaf)" style="fill: none; stroke: #3f3f3f; stroke-linecap: square"/>
   </g>
   <g id="line2d_53">
    <path d="M 360.112625 122.737608 
L 377.968625 122.737608 
" clip-path="url(#pdc4113dbaf)" style="fill: none; stroke: #3f3f3f; stroke-linecap: square"/>
   </g>
   <g id="line2d_54"/>
   <g id="patch_11">
    <path d="M 395.824625 147.875099 
L 431.536625 147.875099 
L 431.536625 135.633532 
L 395.824625 135.633532 
L 395.824625 147.875099 
z
" clip-path="url(#pdc4113dbaf)" style="fill: #9372b2; stroke: #3f3f3f; stroke-linejoin: miter"/>
   </g>
   <g id="line2d_55">
    <path d="M 413.680625 147.875099 
L 413.680625 165.734188 
" clip-path="url(#pdc4113dbaf)" style="fill: none; stroke: #3f3f3f"/>
   </g>
   <g id="line2d_56">
    <path d="M 413.680625 135.633532 
L 413.680625 127.327573 
" clip-path="url(#pdc4113dbaf)" style="fill: none; stroke: #3f3f3f"/>
   </g>
   <g id="line2d_57">
    <path d="M 404.752625 165.734188 
L 422.608625 165.734188 
" clip-path="url(#pdc4113dbaf)" style="fill: none; stroke: #3f3f3f; stroke-linecap: square"/>
   </g>
   <g id="line2d_58">
    <path d="M 404.752625 127.327573 
L 422.608625 127.327573 
" clip-path="url(#pdc4113dbaf)" style="fill: none; stroke: #3f3f3f; stroke-linecap: square"/>
   </g>
   <g id="line2d_59">
    <g clip-path="url(#pdc4113dbaf)">
     <use xlink:href="#mfaf0e2ab8b" x="413.680625" y="110.107126" style="stroke: #000000; stroke-linejoin: miter"/>
     <use xlink:href="#mfaf0e2ab8b" x="413.680625" y="104.704105" style="stroke: #000000; stroke-linejoin: miter"/>
    </g>
   </g>
   <g id="patch_12">
    <path d="M 440.464625 112.295397 
L 476.176625 112.295397 
L 476.176625 78.932414 
L 440.464625 78.932414 
L 440.464625 112.295397 
z
" clip-path="url(#pdc4113dbaf)" style="fill: #c4b5d0; stroke: #3f3f3f; stroke-linejoin: miter"/>
   </g>
   <g id="line2d_60">
    <path d="M 458.320625 112.295397 
L 458.320625 129.605971 
" clip-path="url(#pdc4113dbaf)" style="fill: none; stroke: #3f3f3f"/>
   </g>
   <g id="line2d_61">
    <path d="M 458.320625 78.932414 
L 458.320625 63.234137 
" clip-path="url(#pdc4113dbaf)" style="fill: none; stroke: #3f3f3f"/>
   </g>
   <g id="line2d_62">
    <path d="M 449.392625 129.605971 
L 467.248625 129.605971 
" clip-path="url(#pdc4113dbaf)" style="fill: none; stroke: #3f3f3f; stroke-linecap: square"/>
   </g>
   <g id="line2d_63">
    <path d="M 449.392625 63.234137 
L 467.248625 63.234137 
" clip-path="url(#pdc4113dbaf)" style="fill: none; stroke: #3f3f3f; stroke-linecap: square"/>
   </g>
   <g id="line2d_64">
    <g clip-path="url(#pdc4113dbaf)">
     <use xlink:href="#mfaf0e2ab8b" x="458.320625" y="165.043024" style="stroke: #000000; stroke-linejoin: miter"/>
    </g>
   </g>
   <g id="patch_13">
    <path d="M 217.264625 176.554412 
L 252.976625 176.554412 
L 252.976625 151.128833 
L 217.264625 151.128833 
L 217.264625 176.554412 
z
" clip-path="url(#pdc4113dbaf)" style="fill: #845b53; stroke: #3f3f3f; stroke-linejoin: miter"/>
   </g>
   <g id="line2d_65">
    <path d="M 235.120625 176.554412 
L 235.120625 183.7475 
" clip-path="url(#pdc4113dbaf)" style="fill: none; stroke: #3f3f3f"/>
   </g>
   <g id="line2d_66">
    <path d="M 235.120625 151.128833 
L 235.120625 138.141928 
" clip-path="url(#pdc4113dbaf)" style="fill: none; stroke: #3f3f3f"/>
   </g>
   <g id="line2d_67">
    <path d="M 226.192625 183.7475 
L 244.048625 183.7475 
" clip-path="url(#pdc4113dbaf)" style="fill: none; stroke: #3f3f3f; stroke-linecap: square"/>
   </g>
   <g id="line2d_68">
    <path d="M 226.192625 138.141928 
L 244.048625 138.141928 
" clip-path="url(#pdc4113dbaf)" style="fill: none; stroke: #3f3f3f; stroke-linecap: square"/>
   </g>
   <g id="line2d_69"/>
   <g id="line2d_70">
    <path d="M 38.704625 110.924792 
L 74.416625 110.924792 
" clip-path="url(#pdc4113dbaf)" style="fill: none; stroke: #3f3f3f"/>
   </g>
   <g id="line2d_71">
    <path d="M 83.344625 132.628294 
L 119.056625 132.628294 
" clip-path="url(#pdc4113dbaf)" style="fill: none; stroke: #3f3f3f"/>
   </g>
   <g id="line2d_72">
    <path d="M 127.984625 132.842004 
L 163.696625 132.842004 
" clip-path="url(#pdc4113dbaf)" style="fill: none; stroke: #3f3f3f"/>
   </g>
   <g id="line2d_73">
    <path d="M 172.624625 177.212102 
L 208.336625 177.212102 
" clip-path="url(#pdc4113dbaf)" style="fill: none; stroke: #3f3f3f"/>
   </g>
   <g id="line2d_74">
    <path d="M 217.264625 165.590188 
L 252.976625 165.590188 
" clip-path="url(#pdc4113dbaf)" style="fill: none; stroke: #3f3f3f"/>
   </g>
   <g id="line2d_75">
    <path d="M 261.904625 184.873197 
L 297.616625 184.873197 
" clip-path="url(#pdc4113dbaf)" style="fill: none; stroke: #3f3f3f"/>
   </g>
   <g id="line2d_76">
    <path d="M 306.544625 131.544816 
L 342.256625 131.544816 
" clip-path="url(#pdc4113dbaf)" style="fill: none; stroke: #3f3f3f"/>
   </g>
   <g id="line2d_77">
    <path d="M 351.184625 142.746987 
L 386.896625 142.746987 
" clip-path="url(#pdc4113dbaf)" style="fill: none; stroke: #3f3f3f"/>
   </g>
   <g id="line2d_78">
    <path d="M 395.824625 142.247921 
L 431.536625 142.247921 
" clip-path="url(#pdc4113dbaf)" style="fill: none; stroke: #3f3f3f"/>
   </g>
   <g id="line2d_79">
    <path d="M 440.464625 100.173261 
L 476.176625 100.173261 
" clip-path="url(#pdc4113dbaf)" style="fill: none; stroke: #3f3f3f"/>
   </g>
   <g id="line2d_80">
    <path d="M 217.264625 165.590188 
L 252.976625 165.590188 
" clip-path="url(#pdc4113dbaf)" style="fill: none; stroke: #3f3f3f"/>
   </g>
   <g id="patch_14">
    <path d="M 34.240625 244.078125 
L 34.240625 22.318125 
" style="fill: none; stroke: #000000; stroke-width: 0.8; stroke-linejoin: miter; stroke-linecap: square"/>
   </g>
   <g id="patch_15">
    <path d="M 34.240625 244.078125 
L 480.640625 244.078125 
" style="fill: none; stroke: #000000; stroke-width: 0.8; stroke-linejoin: miter; stroke-linecap: square"/>
   </g>
   <g id="text_17">
    <!-- first-order moment: Expectation -->
    <g transform="translate(160.73375 16.318125) scale(0.12 -0.12)">
     <defs>
      <path id="DejaVuSans-66" d="M 2375 4863 
L 2375 4384 
L 1825 4384 
Q 1516 4384 1395 4259 
Q 1275 4134 1275 3809 
L 1275 3500 
L 2222 3500 
L 2222 3053 
L 1275 3053 
L 1275 0 
L 697 0 
L 697 3053 
L 147 3053 
L 147 3500 
L 697 3500 
L 697 3744 
Q 697 4328 969 4595 
Q 1241 4863 1831 4863 
L 2375 4863 
z
" transform="scale(0.015625)"/>
      <path id="DejaVuSans-2d" d="M 313 2009 
L 1997 2009 
L 1997 1497 
L 313 1497 
L 313 2009 
z
" transform="scale(0.015625)"/>
      <path id="DejaVuSans-64" d="M 2906 2969 
L 2906 4863 
L 3481 4863 
L 3481 0 
L 2906 0 
L 2906 525 
Q 2725 213 2448 61 
Q 2172 -91 1784 -91 
Q 1150 -91 751 415 
Q 353 922 353 1747 
Q 353 2572 751 3078 
Q 1150 3584 1784 3584 
Q 2172 3584 2448 3432 
Q 2725 3281 2906 2969 
z
M 947 1747 
Q 947 1113 1208 752 
Q 1469 391 1925 391 
Q 2381 391 2643 752 
Q 2906 1113 2906 1747 
Q 2906 2381 2643 2742 
Q 2381 3103 1925 3103 
Q 1469 3103 1208 2742 
Q 947 2381 947 1747 
z
" transform="scale(0.015625)"/>
      <path id="DejaVuSans-20" transform="scale(0.015625)"/>
      <path id="DejaVuSans-3a" d="M 750 794 
L 1409 794 
L 1409 0 
L 750 0 
L 750 794 
z
M 750 3309 
L 1409 3309 
L 1409 2516 
L 750 2516 
L 750 3309 
z
" transform="scale(0.015625)"/>
     </defs>
     <use xlink:href="#DejaVuSans-66"/>
     <use xlink:href="#DejaVuSans-69" x="35.205078"/>
     <use xlink:href="#DejaVuSans-72" x="62.988281"/>
     <use xlink:href="#DejaVuSans-73" x="104.101562"/>
     <use xlink:href="#DejaVuSans-74" x="156.201172"/>
     <use xlink:href="#DejaVuSans-2d" x="195.410156"/>
     <use xlink:href="#DejaVuSans-6f" x="233.369141"/>
     <use xlink:href="#DejaVuSans-72" x="294.550781"/>
     <use xlink:href="#DejaVuSans-64" x="333.914062"/>
     <use xlink:href="#DejaVuSans-65" x="397.390625"/>
     <use xlink:href="#DejaVuSans-72" x="458.914062"/>
     <use xlink:href="#DejaVuSans-20" x="500.027344"/>
     <use xlink:href="#DejaVuSans-6d" x="531.814453"/>
     <use xlink:href="#DejaVuSans-6f" x="629.226562"/>
     <use xlink:href="#DejaVuSans-6d" x="690.408203"/>
     <use xlink:href="#DejaVuSans-65" x="787.820312"/>
     <use xlink:href="#DejaVuSans-6e" x="849.34375"/>
     <use xlink:href="#DejaVuSans-74" x="912.722656"/>
     <use xlink:href="#DejaVuSans-3a" x="951.931641"/>
     <use xlink:href="#DejaVuSans-20" x="985.623047"/>
     <use xlink:href="#DejaVuSans-45" x="1017.410156"/>
     <use xlink:href="#DejaVuSans-78" x="1080.59375"/>
     <use xlink:href="#DejaVuSans-70" x="1139.773438"/>
     <use xlink:href="#DejaVuSans-65" x="1203.25"/>
     <use xlink:href="#DejaVuSans-63" x="1264.773438"/>
     <use xlink:href="#DejaVuSans-74" x="1319.753906"/>
     <use xlink:href="#DejaVuSans-61" x="1358.962891"/>
     <use xlink:href="#DejaVuSans-74" x="1420.242188"/>
     <use xlink:href="#DejaVuSans-69" x="1459.451172"/>
     <use xlink:href="#DejaVuSans-6f" x="1487.234375"/>
     <use xlink:href="#DejaVuSans-6e" x="1548.416016"/>
    </g>
   </g>
  </g>
 </g>
 <defs>
  <clipPath id="pdc4113dbaf">
   <rect x="34.240625" y="22.318125" width="446.4" height="221.76"/>
  </clipPath>
 </defs>
</svg>
