<?xml version="1.0" encoding="utf-8" standalone="no"?>
<!DOCTYPE svg PUBLIC "-//W3C//DTD SVG 1.1//EN"
  "http://www.w3.org/Graphics/SVG/1.1/DTD/svg11.dtd">
<svg xmlns:xlink="http://www.w3.org/1999/xlink" width="503.74375pt" height="488.27625pt" viewBox="0 0 503.74375 488.27625" xmlns="http://www.w3.org/2000/svg" version="1.1">
 <metadata>
  <rdf:RDF xmlns:dc="http://purl.org/dc/elements/1.1/" xmlns:cc="http://creativecommons.org/ns#" xmlns:rdf="http://www.w3.org/1999/02/22-rdf-syntax-ns#">
   <cc:Work>
    <dc:type rdf:resource="http://purl.org/dc/dcmitype/StillImage"/>
    <dc:date>2025-12-16T13:51:06.595096</dc:date>
    <dc:format>image/svg+xml</dc:format>
    <dc:creator>
     <cc:Agent>
      <dc:title>Matplotlib v3.9.4, https://matplotlib.org/</dc:title>
     </cc:Agent>
    </dc:creator>
   </cc:Work>
  </rdf:RDF>
 </metadata>
 <defs>
  <style type="text/css">*{stroke-linejoin: round; stroke-linecap: butt}</style>
 </defs>
 <g id="figure_1">
  <g id="patch_1">
   <path d="M 0 488.27625 
L 503.74375 488.27625 
L 503.74375 0 
L 0 0 
z
" style="fill: #ffffff"/>
  </g>
  <g id="axes_1">
   <g id="patch_2">
    <path d="M 50.14375 450.72 
L 496.54375 450.72 
L 496.54375 7.2 
L 50.14375 7.2 
z
" style="fill: #ffffff"/>
   </g>
   <g id="PathCollection_1">
    <defs>
     <path id="m27e7f52970" d="M 0 5 
C 1.326016 5 2.597899 4.473168 3.535534 3.535534 
C 4.473168 2.597899 5 1.326016 5 0 
C 5 -1.326016 4.473168 -2.597899 3.535534 -3.535534 
C 2.597899 -4.473168 1.326016 -5 0 -5 
C -1.326016 -5 -2.597899 -4.473168 -3.535534 -3.535534 
C -4.473168 -2.597899 -5 -1.326016 -5 0 
C -5 1.326016 -4.473168 2.597899 -3.535534 3.535534 
C -2.597899 4.473168 -1.326016 5 0 5 
z
" style="stroke: #ffffff; stroke-width: 0.8"/>
    </defs>
    <g clip-path="url(#pbdf4e70472)">
     <use xlink:href="#m27e7f52970" x="206.590528" y="389.834284" style="fill: #1f77b4; stroke: #ffffff; stroke-width: 0.8"/>
     <use xlink:href="#m27e7f52970" x="344.172078" y="319.065006" style="fill: #1f77b4; stroke: #ffffff; stroke-width: 0.8"/>
     <use xlink:href="#m27e7f52970" x="439.562092" y="170.285182" style="fill: #1f77b4; stroke: #ffffff; stroke-width: 0.8"/>
     <use xlink:href="#m27e7f52970" x="335.400155" y="117.182545" style="fill: #1f77b4; stroke: #ffffff; stroke-width: 0.8"/>
     <use xlink:href="#m27e7f52970" x="212.035183" y="27.36" style="fill: #1f77b4; stroke: #ffffff; stroke-width: 0.8"/>
     <use xlink:href="#m27e7f52970" x="157.910841" y="118.671884" style="fill: #1f77b4; stroke: #ffffff; stroke-width: 0.8"/>
     <use xlink:href="#m27e7f52970" x="134.383422" y="170.593321" style="fill: #1f77b4; stroke: #ffffff; stroke-width: 0.8"/>
     <use xlink:href="#m27e7f52970" x="117.841074" y="257.84804" style="fill: #1f77b4; stroke: #ffffff; stroke-width: 0.8"/>
     <use xlink:href="#m27e7f52970" x="101.001298" y="351.316897" style="fill: #1f77b4; stroke: #ffffff; stroke-width: 0.8"/>
     <use xlink:href="#m27e7f52970" x="87.275623" y="383.568789" style="fill: #1f77b4; stroke: #ffffff; stroke-width: 0.8"/>
     <use xlink:href="#m27e7f52970" x="78.202348" y="405.80616" style="fill: #1f77b4; stroke: #ffffff; stroke-width: 0.8"/>
     <use xlink:href="#m27e7f52970" x="73.569104" y="423.370088" style="fill: #1f77b4; stroke: #ffffff; stroke-width: 0.8"/>
     <use xlink:href="#m27e7f52970" x="71.683346" y="423.678227" style="fill: #1f77b4; stroke: #ffffff; stroke-width: 0.8"/>
     <use xlink:href="#m27e7f52970" x="70.991373" y="430.097791" style="fill: #1f77b4; stroke: #ffffff; stroke-width: 0.8"/>
     <use xlink:href="#m27e7f52970" x="70.677694" y="430.56" style="fill: #1f77b4; stroke: #ffffff; stroke-width: 0.8"/>
     <use xlink:href="#m27e7f52970" x="298.12632" y="356.961839" style="fill: #1f77b4; stroke: #ffffff; stroke-width: 0.8"/>
     <use xlink:href="#m27e7f52970" x="462.02329" y="302.056517" style="fill: #1f77b4; stroke: #ffffff; stroke-width: 0.8"/>
     <use xlink:href="#m27e7f52970" x="476.252841" y="206.480584" style="fill: #1f77b4; stroke: #ffffff; stroke-width: 0.8"/>
     <use xlink:href="#m27e7f52970" x="309.928502" y="150.558496" style="fill: #1f77b4; stroke: #ffffff; stroke-width: 0.8"/>
     <use xlink:href="#m27e7f52970" x="175.190764" y="77.977101" style="fill: #1f77b4; stroke: #ffffff; stroke-width: 0.8"/>
     <use xlink:href="#m27e7f52970" x="114.169" y="71.563659" style="fill: #1f77b4; stroke: #ffffff; stroke-width: 0.8"/>
     <use xlink:href="#m27e7f52970" x="88.676228" y="170.815588" style="fill: #1f77b4; stroke: #ffffff; stroke-width: 0.8"/>
     <use xlink:href="#m27e7f52970" x="78.274826" y="262.559098" style="fill: #1f77b4; stroke: #ffffff; stroke-width: 0.8"/>
     <use xlink:href="#m27e7f52970" x="73.799079" y="343.039977" style="fill: #1f77b4; stroke: #ffffff; stroke-width: 0.8"/>
     <use xlink:href="#m27e7f52970" x="71.68083" y="376.436804" style="fill: #1f77b4; stroke: #ffffff; stroke-width: 0.8"/>
     <use xlink:href="#m27e7f52970" x="70.994814" y="399.822405" style="fill: #1f77b4; stroke: #ffffff; stroke-width: 0.8"/>
     <use xlink:href="#m27e7f52970" x="70.67416" y="419.923071" style="fill: #1f77b4; stroke: #ffffff; stroke-width: 0.8"/>
     <use xlink:href="#m27e7f52970" x="70.557925" y="423.442643" style="fill: #1f77b4; stroke: #ffffff; stroke-width: 0.8"/>
     <use xlink:href="#m27e7f52970" x="70.512921" y="427.822555" style="fill: #1f77b4; stroke: #ffffff; stroke-width: 0.8"/>
     <use xlink:href="#m27e7f52970" x="70.434659" y="429.777873" style="fill: #1f77b4; stroke: #ffffff; stroke-width: 0.8"/>
     <use xlink:href="#m27e7f52970" x="240.238136" y="369.903823" style="fill: #1f77b4; stroke: #ffffff; stroke-width: 0.8"/>
     <use xlink:href="#m27e7f52970" x="376.206464" y="248.905344" style="fill: #1f77b4; stroke: #ffffff; stroke-width: 0.8"/>
     <use xlink:href="#m27e7f52970" x="419.175748" y="111.506941" style="fill: #1f77b4; stroke: #ffffff; stroke-width: 0.8"/>
     <use xlink:href="#m27e7f52970" x="298.826575" y="38.452737" style="fill: #1f77b4; stroke: #ffffff; stroke-width: 0.8"/>
     <use xlink:href="#m27e7f52970" x="191.513021" y="74.940605" style="fill: #1f77b4; stroke: #ffffff; stroke-width: 0.8"/>
     <use xlink:href="#m27e7f52970" x="138.43729" y="163.060768" style="fill: #1f77b4; stroke: #ffffff; stroke-width: 0.8"/>
     <use xlink:href="#m27e7f52970" x="115.408568" y="237.919749" style="fill: #1f77b4; stroke: #ffffff; stroke-width: 0.8"/>
     <use xlink:href="#m27e7f52970" x="103.271888" y="301.086919" style="fill: #1f77b4; stroke: #ffffff; stroke-width: 0.8"/>
     <use xlink:href="#m27e7f52970" x="96.512871" y="350.992907" style="fill: #1f77b4; stroke: #ffffff; stroke-width: 0.8"/>
     <use xlink:href="#m27e7f52970" x="91.811684" y="392.267355" style="fill: #1f77b4; stroke: #ffffff; stroke-width: 0.8"/>
     <use xlink:href="#m27e7f52970" x="89.46163" y="419.888279" style="fill: #1f77b4; stroke: #ffffff; stroke-width: 0.8"/>
     <use xlink:href="#m27e7f52970" x="87.574416" y="422.085398" style="fill: #1f77b4; stroke: #ffffff; stroke-width: 0.8"/>
     <use xlink:href="#m27e7f52970" x="85.283637" y="428.284413" style="fill: #1f77b4; stroke: #ffffff; stroke-width: 0.8"/>
     <use xlink:href="#m27e7f52970" x="84.154386" y="429.382972" style="fill: #1f77b4; stroke: #ffffff; stroke-width: 0.8"/>
     <use xlink:href="#m27e7f52970" x="83.419845" y="430.56" style="fill: #1f77b4; stroke: #ffffff; stroke-width: 0.8"/>
     <use xlink:href="#m27e7f52970" x="276.60755" y="377.890551" style="fill: #1f77b4; stroke: #ffffff; stroke-width: 0.8"/>
     <use xlink:href="#m27e7f52970" x="441.407633" y="234.828938" style="fill: #1f77b4; stroke: #ffffff; stroke-width: 0.8"/>
     <use xlink:href="#m27e7f52970" x="422.135845" y="37.674378" style="fill: #1f77b4; stroke: #ffffff; stroke-width: 0.8"/>
     <use xlink:href="#m27e7f52970" x="272.034604" y="40.87725" style="fill: #1f77b4; stroke: #ffffff; stroke-width: 0.8"/>
     <use xlink:href="#m27e7f52970" x="183.693504" y="61.162105" style="fill: #1f77b4; stroke: #ffffff; stroke-width: 0.8"/>
     <use xlink:href="#m27e7f52970" x="143.565658" y="137.319282" style="fill: #1f77b4; stroke: #ffffff; stroke-width: 0.8"/>
     <use xlink:href="#m27e7f52970" x="118.375225" y="238.74356" style="fill: #1f77b4; stroke: #ffffff; stroke-width: 0.8"/>
     <use xlink:href="#m27e7f52970" x="102.709683" y="314.544862" style="fill: #1f77b4; stroke: #ffffff; stroke-width: 0.8"/>
     <use xlink:href="#m27e7f52970" x="91.495817" y="419.527886" style="fill: #1f77b4; stroke: #ffffff; stroke-width: 0.8"/>
     <use xlink:href="#m27e7f52970" x="82.885537" y="420.59551" style="fill: #1f77b4; stroke: #ffffff; stroke-width: 0.8"/>
     <use xlink:href="#m27e7f52970" x="77.566843" y="418.460262" style="fill: #1f77b4; stroke: #ffffff; stroke-width: 0.8"/>
     <use xlink:href="#m27e7f52970" x="74.232738" y="425.933629" style="fill: #1f77b4; stroke: #ffffff; stroke-width: 0.8"/>
     <use xlink:href="#m27e7f52970" x="72.384012" y="430.56" style="fill: #1f77b4; stroke: #ffffff; stroke-width: 0.8"/>
     <use xlink:href="#m27e7f52970" x="71.317" y="430.56" style="fill: #1f77b4; stroke: #ffffff; stroke-width: 0.8"/>
     <use xlink:href="#m27e7f52970" x="70.884509" y="430.56" style="fill: #1f77b4; stroke: #ffffff; stroke-width: 0.8"/>
    </g>
   </g>
   <g id="matplotlib.axis_1">
    <g id="xtick_1">
     <g id="line2d_1">
      <defs>
       <path id="m589dfc2ac0" d="M 0 0 
L 0 3.5 
" style="stroke: #000000; stroke-width: 0.8"/>
      </defs>
      <g>
       <use xlink:href="#m589dfc2ac0" x="70.40417" y="450.72" style="stroke: #000000; stroke-width: 0.8"/>
      </g>
     </g>
     <g id="text_1">
      <!-- 0.00 -->
      <g transform="translate(59.271357 465.318437) scale(0.1 -0.1)">
       <defs>
        <path id="DejaVuSans-30" d="M 2034 4250 
Q 1547 4250 1301 3770 
Q 1056 3291 1056 2328 
Q 1056 1369 1301 889 
Q 1547 409 2034 409 
Q 2525 409 2770 889 
Q 3016 1369 3016 2328 
Q 3016 3291 2770 3770 
Q 2525 4250 2034 4250 
z
M 2034 4750 
Q 2819 4750 3233 4129 
Q 3647 3509 3647 2328 
Q 3647 1150 3233 529 
Q 2819 -91 2034 -91 
Q 1250 -91 836 529 
Q 422 1150 422 2328 
Q 422 3509 836 4129 
Q 1250 4750 2034 4750 
z
" transform="scale(0.015625)"/>
        <path id="DejaVuSans-2e" d="M 684 794 
L 1344 794 
L 1344 0 
L 684 0 
L 684 794 
z
" transform="scale(0.015625)"/>
       </defs>
       <use xlink:href="#DejaVuSans-30"/>
       <use xlink:href="#DejaVuSans-2e" x="63.623047"/>
       <use xlink:href="#DejaVuSans-30" x="95.410156"/>
       <use xlink:href="#DejaVuSans-30" x="159.033203"/>
      </g>
     </g>
    </g>
    <g id="xtick_2">
     <g id="line2d_2">
      <g>
       <use xlink:href="#m589dfc2ac0" x="171.570523" y="450.72" style="stroke: #000000; stroke-width: 0.8"/>
      </g>
     </g>
     <g id="text_2">
      <!-- 0.07 -->
      <g transform="translate(160.43771 465.318437) scale(0.1 -0.1)">
       <defs>
        <path id="DejaVuSans-37" d="M 525 4666 
L 3525 4666 
L 3525 4397 
L 1831 0 
L 1172 0 
L 2766 4134 
L 525 4134 
L 525 4666 
z
" transform="scale(0.015625)"/>
       </defs>
       <use xlink:href="#DejaVuSans-30"/>
       <use xlink:href="#DejaVuSans-2e" x="63.623047"/>
       <use xlink:href="#DejaVuSans-30" x="95.410156"/>
       <use xlink:href="#DejaVuSans-37" x="159.033203"/>
      </g>
     </g>
    </g>
    <g id="xtick_3">
     <g id="line2d_3">
      <g>
       <use xlink:href="#m589dfc2ac0" x="272.736876" y="450.72" style="stroke: #000000; stroke-width: 0.8"/>
      </g>
     </g>
     <g id="text_3">
      <!-- 0.14 -->
      <g transform="translate(261.604063 465.318437) scale(0.1 -0.1)">
       <defs>
        <path id="DejaVuSans-31" d="M 794 531 
L 1825 531 
L 1825 4091 
L 703 3866 
L 703 4441 
L 1819 4666 
L 2450 4666 
L 2450 531 
L 3481 531 
L 3481 0 
L 794 0 
L 794 531 
z
" transform="scale(0.015625)"/>
        <path id="DejaVuSans-34" d="M 2419 4116 
L 825 1625 
L 2419 1625 
L 2419 4116 
z
M 2253 4666 
L 3047 4666 
L 3047 1625 
L 3713 1625 
L 3713 1100 
L 3047 1100 
L 3047 0 
L 2419 0 
L 2419 1100 
L 313 1100 
L 313 1709 
L 2253 4666 
z
" transform="scale(0.015625)"/>
       </defs>
       <use xlink:href="#DejaVuSans-30"/>
       <use xlink:href="#DejaVuSans-2e" x="63.623047"/>
       <use xlink:href="#DejaVuSans-31" x="95.410156"/>
       <use xlink:href="#DejaVuSans-34" x="159.033203"/>
      </g>
     </g>
    </g>
    <g id="xtick_4">
     <g id="line2d_4">
      <g>
       <use xlink:href="#m589dfc2ac0" x="373.903228" y="450.72" style="stroke: #000000; stroke-width: 0.8"/>
      </g>
     </g>
     <g id="text_4">
      <!-- 0.21 -->
      <g transform="translate(362.770416 465.318437) scale(0.1 -0.1)">
       <defs>
        <path id="DejaVuSans-32" d="M 1228 531 
L 3431 531 
L 3431 0 
L 469 0 
L 469 531 
Q 828 903 1448 1529 
Q 2069 2156 2228 2338 
Q 2531 2678 2651 2914 
Q 2772 3150 2772 3378 
Q 2772 3750 2511 3984 
Q 2250 4219 1831 4219 
Q 1534 4219 1204 4116 
Q 875 4013 500 3803 
L 500 4441 
Q 881 4594 1212 4672 
Q 1544 4750 1819 4750 
Q 2544 4750 2975 4387 
Q 3406 4025 3406 3419 
Q 3406 3131 3298 2873 
Q 3191 2616 2906 2266 
Q 2828 2175 2409 1742 
Q 1991 1309 1228 531 
z
" transform="scale(0.015625)"/>
       </defs>
       <use xlink:href="#DejaVuSans-30"/>
       <use xlink:href="#DejaVuSans-2e" x="63.623047"/>
       <use xlink:href="#DejaVuSans-32" x="95.410156"/>
       <use xlink:href="#DejaVuSans-31" x="159.033203"/>
      </g>
     </g>
    </g>
    <g id="xtick_5">
     <g id="line2d_5">
      <g>
       <use xlink:href="#m589dfc2ac0" x="475.069581" y="450.72" style="stroke: #000000; stroke-width: 0.8"/>
      </g>
     </g>
     <g id="text_5">
      <!-- 0.28 -->
      <g transform="translate(463.936769 465.318437) scale(0.1 -0.1)">
       <defs>
        <path id="DejaVuSans-38" d="M 2034 2216 
Q 1584 2216 1326 1975 
Q 1069 1734 1069 1313 
Q 1069 891 1326 650 
Q 1584 409 2034 409 
Q 2484 409 2743 651 
Q 3003 894 3003 1313 
Q 3003 1734 2745 1975 
Q 2488 2216 2034 2216 
z
M 1403 2484 
Q 997 2584 770 2862 
Q 544 3141 544 3541 
Q 544 4100 942 4425 
Q 1341 4750 2034 4750 
Q 2731 4750 3128 4425 
Q 3525 4100 3525 3541 
Q 3525 3141 3298 2862 
Q 3072 2584 2669 2484 
Q 3125 2378 3379 2068 
Q 3634 1759 3634 1313 
Q 3634 634 3220 271 
Q 2806 -91 2034 -91 
Q 1263 -91 848 271 
Q 434 634 434 1313 
Q 434 1759 690 2068 
Q 947 2378 1403 2484 
z
M 1172 3481 
Q 1172 3119 1398 2916 
Q 1625 2713 2034 2713 
Q 2441 2713 2670 2916 
Q 2900 3119 2900 3481 
Q 2900 3844 2670 4047 
Q 2441 4250 2034 4250 
Q 1625 4250 1398 4047 
Q 1172 3844 1172 3481 
z
" transform="scale(0.015625)"/>
       </defs>
       <use xlink:href="#DejaVuSans-30"/>
       <use xlink:href="#DejaVuSans-2e" x="63.623047"/>
       <use xlink:href="#DejaVuSans-32" x="95.410156"/>
       <use xlink:href="#DejaVuSans-38" x="159.033203"/>
      </g>
     </g>
    </g>
    <g id="text_6">
     <!-- micron -->
     <g transform="translate(256.164062 478.996562) scale(0.1 -0.1)">
      <defs>
       <path id="DejaVuSans-6d" d="M 3328 2828 
Q 3544 3216 3844 3400 
Q 4144 3584 4550 3584 
Q 5097 3584 5394 3201 
Q 5691 2819 5691 2113 
L 5691 0 
L 5113 0 
L 5113 2094 
Q 5113 2597 4934 2840 
Q 4756 3084 4391 3084 
Q 3944 3084 3684 2787 
Q 3425 2491 3425 1978 
L 3425 0 
L 2847 0 
L 2847 2094 
Q 2847 2600 2669 2842 
Q 2491 3084 2119 3084 
Q 1678 3084 1418 2786 
Q 1159 2488 1159 1978 
L 1159 0 
L 581 0 
L 581 3500 
L 1159 3500 
L 1159 2956 
Q 1356 3278 1631 3431 
Q 1906 3584 2284 3584 
Q 2666 3584 2933 3390 
Q 3200 3197 3328 2828 
z
" transform="scale(0.015625)"/>
       <path id="DejaVuSans-69" d="M 603 3500 
L 1178 3500 
L 1178 0 
L 603 0 
L 603 3500 
z
M 603 4863 
L 1178 4863 
L 1178 4134 
L 603 4134 
L 603 4863 
z
" transform="scale(0.015625)"/>
       <path id="DejaVuSans-63" d="M 3122 3366 
L 3122 2828 
Q 2878 2963 2633 3030 
Q 2388 3097 2138 3097 
Q 1578 3097 1268 2742 
Q 959 2388 959 1747 
Q 959 1106 1268 751 
Q 1578 397 2138 397 
Q 2388 397 2633 464 
Q 2878 531 3122 666 
L 3122 134 
Q 2881 22 2623 -34 
Q 2366 -91 2075 -91 
Q 1284 -91 818 406 
Q 353 903 353 1747 
Q 353 2603 823 3093 
Q 1294 3584 2113 3584 
Q 2378 3584 2631 3529 
Q 2884 3475 3122 3366 
z
" transform="scale(0.015625)"/>
       <path id="DejaVuSans-72" d="M 2631 2963 
Q 2534 3019 2420 3045 
Q 2306 3072 2169 3072 
Q 1681 3072 1420 2755 
Q 1159 2438 1159 1844 
L 1159 0 
L 581 0 
L 581 3500 
L 1159 3500 
L 1159 2956 
Q 1341 3275 1631 3429 
Q 1922 3584 2338 3584 
Q 2397 3584 2469 3576 
Q 2541 3569 2628 3553 
L 2631 2963 
z
" transform="scale(0.015625)"/>
       <path id="DejaVuSans-6f" d="M 1959 3097 
Q 1497 3097 1228 2736 
Q 959 2375 959 1747 
Q 959 1119 1226 758 
Q 1494 397 1959 397 
Q 2419 397 2687 759 
Q 2956 1122 2956 1747 
Q 2956 2369 2687 2733 
Q 2419 3097 1959 3097 
z
M 1959 3584 
Q 2709 3584 3137 3096 
Q 3566 2609 3566 1747 
Q 3566 888 3137 398 
Q 2709 -91 1959 -91 
Q 1206 -91 779 398 
Q 353 888 353 1747 
Q 353 2609 779 3096 
Q 1206 3584 1959 3584 
z
" transform="scale(0.015625)"/>
       <path id="DejaVuSans-6e" d="M 3513 2113 
L 3513 0 
L 2938 0 
L 2938 2094 
Q 2938 2591 2744 2837 
Q 2550 3084 2163 3084 
Q 1697 3084 1428 2787 
Q 1159 2491 1159 1978 
L 1159 0 
L 581 0 
L 581 3500 
L 1159 3500 
L 1159 2956 
Q 1366 3272 1645 3428 
Q 1925 3584 2291 3584 
Q 2894 3584 3203 3211 
Q 3513 2838 3513 2113 
z
" transform="scale(0.015625)"/>
      </defs>
      <use xlink:href="#DejaVuSans-6d"/>
      <use xlink:href="#DejaVuSans-69" x="97.412109"/>
      <use xlink:href="#DejaVuSans-63" x="125.195312"/>
      <use xlink:href="#DejaVuSans-72" x="180.175781"/>
      <use xlink:href="#DejaVuSans-6f" x="219.039062"/>
      <use xlink:href="#DejaVuSans-6e" x="280.220703"/>
     </g>
    </g>
   </g>
   <g id="matplotlib.axis_2">
    <g id="ytick_1">
     <g id="line2d_6">
      <defs>
       <path id="m49196c1f5c" d="M 0 0 
L -3.5 0 
" style="stroke: #000000; stroke-width: 0.8"/>
      </defs>
      <g>
       <use xlink:href="#m49196c1f5c" x="50.14375" y="430.56" style="stroke: #000000; stroke-width: 0.8"/>
      </g>
     </g>
     <g id="text_7">
      <!-- 0.00 -->
      <g transform="translate(20.878125 434.359219) scale(0.1 -0.1)">
       <use xlink:href="#DejaVuSans-30"/>
       <use xlink:href="#DejaVuSans-2e" x="63.623047"/>
       <use xlink:href="#DejaVuSans-30" x="95.410156"/>
       <use xlink:href="#DejaVuSans-30" x="159.033203"/>
      </g>
     </g>
    </g>
    <g id="ytick_2">
     <g id="line2d_7">
      <g>
       <use xlink:href="#m49196c1f5c" x="50.14375" y="328.601911" style="stroke: #000000; stroke-width: 0.8"/>
      </g>
     </g>
     <g id="text_8">
      <!-- 0.05 -->
      <g transform="translate(20.878125 332.401129) scale(0.1 -0.1)">
       <defs>
        <path id="DejaVuSans-35" d="M 691 4666 
L 3169 4666 
L 3169 4134 
L 1269 4134 
L 1269 2991 
Q 1406 3038 1543 3061 
Q 1681 3084 1819 3084 
Q 2600 3084 3056 2656 
Q 3513 2228 3513 1497 
Q 3513 744 3044 326 
Q 2575 -91 1722 -91 
Q 1428 -91 1123 -41 
Q 819 9 494 109 
L 494 744 
Q 775 591 1075 516 
Q 1375 441 1709 441 
Q 2250 441 2565 725 
Q 2881 1009 2881 1497 
Q 2881 1984 2565 2268 
Q 2250 2553 1709 2553 
Q 1456 2553 1204 2497 
Q 953 2441 691 2322 
L 691 4666 
z
" transform="scale(0.015625)"/>
       </defs>
       <use xlink:href="#DejaVuSans-30"/>
       <use xlink:href="#DejaVuSans-2e" x="63.623047"/>
       <use xlink:href="#DejaVuSans-30" x="95.410156"/>
       <use xlink:href="#DejaVuSans-35" x="159.033203"/>
      </g>
     </g>
    </g>
    <g id="ytick_3">
     <g id="line2d_8">
      <g>
       <use xlink:href="#m49196c1f5c" x="50.14375" y="226.643821" style="stroke: #000000; stroke-width: 0.8"/>
      </g>
     </g>
     <g id="text_9">
      <!-- 0.10 -->
      <g transform="translate(20.878125 230.44304) scale(0.1 -0.1)">
       <use xlink:href="#DejaVuSans-30"/>
       <use xlink:href="#DejaVuSans-2e" x="63.623047"/>
       <use xlink:href="#DejaVuSans-31" x="95.410156"/>
       <use xlink:href="#DejaVuSans-30" x="159.033203"/>
      </g>
     </g>
    </g>
    <g id="ytick_4">
     <g id="line2d_9">
      <g>
       <use xlink:href="#m49196c1f5c" x="50.14375" y="124.685732" style="stroke: #000000; stroke-width: 0.8"/>
      </g>
     </g>
     <g id="text_10">
      <!-- 0.15 -->
      <g transform="translate(20.878125 128.484951) scale(0.1 -0.1)">
       <use xlink:href="#DejaVuSans-30"/>
       <use xlink:href="#DejaVuSans-2e" x="63.623047"/>
       <use xlink:href="#DejaVuSans-31" x="95.410156"/>
       <use xlink:href="#DejaVuSans-35" x="159.033203"/>
      </g>
     </g>
    </g>
    <g id="ytick_5">
     <g id="line2d_10">
      <g>
       <use xlink:href="#m49196c1f5c" x="50.14375" y="22.727642" style="stroke: #000000; stroke-width: 0.8"/>
      </g>
     </g>
     <g id="text_11">
      <!-- 0.20 -->
      <g transform="translate(20.878125 26.526861) scale(0.1 -0.1)">
       <use xlink:href="#DejaVuSans-30"/>
       <use xlink:href="#DejaVuSans-2e" x="63.623047"/>
       <use xlink:href="#DejaVuSans-32" x="95.410156"/>
       <use xlink:href="#DejaVuSans-30" x="159.033203"/>
      </g>
     </g>
    </g>
    <g id="text_12">
     <!-- ppss -->
     <g transform="translate(14.798437 240.517812) rotate(-90) scale(0.1 -0.1)">
      <defs>
       <path id="DejaVuSans-70" d="M 1159 525 
L 1159 -1331 
L 581 -1331 
L 581 3500 
L 1159 3500 
L 1159 2969 
Q 1341 3281 1617 3432 
Q 1894 3584 2278 3584 
Q 2916 3584 3314 3078 
Q 3713 2572 3713 1747 
Q 3713 922 3314 415 
Q 2916 -91 2278 -91 
Q 1894 -91 1617 61 
Q 1341 213 1159 525 
z
M 3116 1747 
Q 3116 2381 2855 2742 
Q 2594 3103 2138 3103 
Q 1681 3103 1420 2742 
Q 1159 2381 1159 1747 
Q 1159 1113 1420 752 
Q 1681 391 2138 391 
Q 2594 391 2855 752 
Q 3116 1113 3116 1747 
z
" transform="scale(0.015625)"/>
       <path id="DejaVuSans-73" d="M 2834 3397 
L 2834 2853 
Q 2591 2978 2328 3040 
Q 2066 3103 1784 3103 
Q 1356 3103 1142 2972 
Q 928 2841 928 2578 
Q 928 2378 1081 2264 
Q 1234 2150 1697 2047 
L 1894 2003 
Q 2506 1872 2764 1633 
Q 3022 1394 3022 966 
Q 3022 478 2636 193 
Q 2250 -91 1575 -91 
Q 1294 -91 989 -36 
Q 684 19 347 128 
L 347 722 
Q 666 556 975 473 
Q 1284 391 1588 391 
Q 1994 391 2212 530 
Q 2431 669 2431 922 
Q 2431 1156 2273 1281 
Q 2116 1406 1581 1522 
L 1381 1569 
Q 847 1681 609 1914 
Q 372 2147 372 2553 
Q 372 3047 722 3315 
Q 1072 3584 1716 3584 
Q 2034 3584 2315 3537 
Q 2597 3491 2834 3397 
z
" transform="scale(0.015625)"/>
      </defs>
      <use xlink:href="#DejaVuSans-70"/>
      <use xlink:href="#DejaVuSans-70" x="63.476562"/>
      <use xlink:href="#DejaVuSans-73" x="126.953125"/>
      <use xlink:href="#DejaVuSans-73" x="179.052734"/>
     </g>
    </g>
   </g>
   <g id="line2d_11">
    <path d="M 70.434659 352.759741 
L 74.533833 350.285222 
L 78.633006 347.810702 
L 82.73218 345.336183 
L 86.831353 342.861664 
L 90.930527 340.387145 
L 95.0297 337.912626 
L 99.128874 335.438106 
L 103.228048 332.963587 
L 107.327221 330.489068 
L 111.426395 328.014549 
L 115.525568 325.54003 
L 119.624742 323.065511 
L 123.723915 320.590991 
L 127.823089 318.116472 
L 131.922262 315.641953 
L 136.021436 313.167434 
L 140.12061 310.692915 
L 144.219783 308.218395 
L 148.318957 305.743876 
L 152.41813 303.269357 
L 156.517304 300.794838 
L 160.616477 298.320319 
L 164.715651 295.8458 
L 168.814824 293.37128 
L 172.913998 290.896761 
L 177.013171 288.422242 
L 181.112345 285.947723 
L 185.211519 283.473204 
L 189.310692 280.998684 
L 193.409866 278.524165 
L 197.509039 276.049646 
L 201.608213 273.575127 
L 205.707386 271.100608 
L 209.80656 268.626088 
L 213.905733 266.151569 
L 218.004907 263.67705 
L 222.104081 261.202531 
L 226.203254 258.728012 
L 230.302428 256.253493 
L 234.401601 253.778973 
L 238.500775 251.304454 
L 242.599948 248.829935 
L 246.699122 246.355416 
L 250.798295 243.880897 
L 254.897469 241.406377 
L 258.996643 238.931858 
L 263.095816 236.457339 
L 267.19499 233.98282 
L 271.294163 231.508301 
L 275.393337 229.033781 
L 279.49251 226.559262 
L 283.591684 224.084743 
L 287.690857 221.610224 
L 291.790031 219.135705 
L 295.889205 216.661186 
L 299.988378 214.186666 
L 304.087552 211.712147 
L 308.186725 209.237628 
L 312.285899 206.763109 
L 316.385072 204.28859 
L 320.484246 201.81407 
L 324.583419 199.339551 
L 328.682593 196.865032 
L 332.781767 194.390513 
L 336.88094 191.915994 
L 340.980114 189.441475 
L 345.079287 186.966955 
L 349.178461 184.492436 
L 353.277634 182.017917 
L 357.376808 179.543398 
L 361.475981 177.068879 
L 365.575155 174.594359 
L 369.674329 172.11984 
L 373.773502 169.645321 
L 377.872676 167.170802 
L 381.971849 164.696283 
L 386.071023 162.221763 
L 390.170196 159.747244 
L 394.26937 157.272725 
L 398.368543 154.798206 
L 402.467717 152.323687 
L 406.56689 149.849168 
L 410.666064 147.374648 
L 414.765238 144.900129 
L 418.864411 142.42561 
L 422.963585 139.951091 
L 427.062758 137.476572 
L 431.161932 135.002052 
L 435.261105 132.527533 
L 439.360279 130.053014 
L 443.459452 127.578495 
L 447.558626 125.103976 
L 451.6578 122.629456 
L 455.756973 120.154937 
L 459.856147 117.680418 
L 463.95532 115.205899 
L 468.054494 112.73138 
L 472.153667 110.256861 
L 476.252841 107.782341 
" clip-path="url(#pbdf4e70472)" style="fill: none; stroke-dasharray: 7.4,3.2; stroke-dashoffset: 0; stroke: #ff0000; stroke-width: 2"/>
   </g>
   <g id="patch_3">
    <path d="M 50.14375 450.72 
L 50.14375 7.2 
" style="fill: none; stroke: #000000; stroke-width: 0.8; stroke-linejoin: miter; stroke-linecap: square"/>
   </g>
   <g id="patch_4">
    <path d="M 50.14375 450.72 
L 496.54375 450.72 
" style="fill: none; stroke: #000000; stroke-width: 0.8; stroke-linejoin: miter; stroke-linecap: square"/>
   </g>
  </g>
 </g>
 <defs>
  <clipPath id="pbdf4e70472">
   <rect x="50.14375" y="7.2" width="446.4" height="443.52"/>
  </clipPath>
 </defs>
</svg>
