<?xml version="1.0" encoding="utf-8" standalone="no"?>
<!DOCTYPE svg PUBLIC "-//W3C//DTD SVG 1.1//EN"
  "http://www.w3.org/Graphics/SVG/1.1/DTD/svg11.dtd">
<svg xmlns:xlink="http://www.w3.org/1999/xlink" width="514.307431pt" height="488.27625pt" viewBox="0 0 514.307431 488.27625" xmlns="http://www.w3.org/2000/svg" version="1.1">
 <metadata>
  <rdf:RDF xmlns:dc="http://purl.org/dc/elements/1.1/" xmlns:cc="http://creativecommons.org/ns#" xmlns:rdf="http://www.w3.org/1999/02/22-rdf-syntax-ns#">
   <cc:Work>
    <dc:type rdf:resource="http://purl.org/dc/dcmitype/StillImage"/>
    <dc:date>2025-12-16T13:50:47.711159</dc:date>
    <dc:format>image/svg+xml</dc:format>
    <dc:creator>
     <cc:Agent>
      <dc:title>Matplotlib v3.9.4, https://matplotlib.org/</dc:title>
     </cc:Agent>
    </dc:creator>
   </cc:Work>
  </rdf:RDF>
 </metadata>
 <defs>
  <style type="text/css">*{stroke-linejoin: round; stroke-linecap: butt}</style>
 </defs>
 <g id="figure_1">
  <g id="patch_1">
   <path d="M 0 488.27625 
L 514.307431 488.27625 
L 514.307431 0 
L 0 0 
z
" style="fill: #ffffff"/>
  </g>
  <g id="axes_1">
   <g id="patch_2">
    <path d="M 50.14375 450.72 
L 496.54375 450.72 
L 496.54375 7.2 
L 50.14375 7.2 
z
" style="fill: #ffffff"/>
   </g>
   <g id="PathCollection_1">
    <defs>
     <path id="m591108257b" d="M 0 5 
C 1.326016 5 2.597899 4.473168 3.535534 3.535534 
C 4.473168 2.597899 5 1.326016 5 0 
C 5 -1.326016 4.473168 -2.597899 3.535534 -3.535534 
C 2.597899 -4.473168 1.326016 -5 0 -5 
C -1.326016 -5 -2.597899 -4.473168 -3.535534 -3.535534 
C -4.473168 -2.597899 -5 -1.326016 -5 0 
C -5 1.326016 -4.473168 2.597899 -3.535534 3.535534 
C -2.597899 4.473168 -1.326016 5 0 5 
z
" style="stroke: #ffffff; stroke-width: 0.8"/>
    </defs>
    <g clip-path="url(#pd173b318ef)">
     <use xlink:href="#m591108257b" x="95.89333" y="387.405396" style="fill: #1f77b4; stroke: #ffffff; stroke-width: 0.8"/>
     <use xlink:href="#m591108257b" x="154.55573" y="326.817632" style="fill: #1f77b4; stroke: #ffffff; stroke-width: 0.8"/>
     <use xlink:href="#m591108257b" x="324.79044" y="199.442628" style="fill: #1f77b4; stroke: #ffffff; stroke-width: 0.8"/>
     <use xlink:href="#m591108257b" x="477.33234" y="153.97982" style="fill: #1f77b4; stroke: #ffffff; stroke-width: 0.8"/>
     <use xlink:href="#m591108257b" x="461.758314" y="77.079965" style="fill: #1f77b4; stroke: #ffffff; stroke-width: 0.8"/>
     <use xlink:href="#m591108257b" x="391.827916" y="155.254889" style="fill: #1f77b4; stroke: #ffffff; stroke-width: 0.8"/>
     <use xlink:href="#m591108257b" x="294.258537" y="199.706435" style="fill: #1f77b4; stroke: #ffffff; stroke-width: 0.8"/>
     <use xlink:href="#m591108257b" x="227.082383" y="274.407896" style="fill: #1f77b4; stroke: #ffffff; stroke-width: 0.8"/>
     <use xlink:href="#m591108257b" x="185.16136" y="354.429472" style="fill: #1f77b4; stroke: #ffffff; stroke-width: 0.8"/>
     <use xlink:href="#m591108257b" x="162.602544" y="382.041313" style="fill: #1f77b4; stroke: #ffffff; stroke-width: 0.8"/>
     <use xlink:href="#m591108257b" x="140.824887" y="401.079413" style="fill: #1f77b4; stroke: #ffffff; stroke-width: 0.8"/>
     <use xlink:href="#m591108257b" x="121.427571" y="416.116435" style="fill: #1f77b4; stroke: #ffffff; stroke-width: 0.8"/>
     <use xlink:href="#m591108257b" x="117.060103" y="416.380242" style="fill: #1f77b4; stroke: #ffffff; stroke-width: 0.8"/>
     <use xlink:href="#m591108257b" x="104.765189" y="421.876229" style="fill: #1f77b4; stroke: #ffffff; stroke-width: 0.8"/>
     <use xlink:href="#m591108257b" x="96.098713" y="422.27194" style="fill: #1f77b4; stroke: #ffffff; stroke-width: 0.8"/>
     <use xlink:href="#m591108257b" x="143.383791" y="359.262282" style="fill: #1f77b4; stroke: #ffffff; stroke-width: 0.8"/>
     <use xlink:href="#m591108257b" x="258.636398" y="312.256139" style="fill: #1f77b4; stroke: #ffffff; stroke-width: 0.8"/>
     <use xlink:href="#m591108257b" x="390.220329" y="230.430631" style="fill: #1f77b4; stroke: #ffffff; stroke-width: 0.8"/>
     <use xlink:href="#m591108257b" x="429.718504" y="182.554003" style="fill: #1f77b4; stroke: #ffffff; stroke-width: 0.8"/>
     <use xlink:href="#m591108257b" x="375.187576" y="120.414829" style="fill: #1f77b4; stroke: #ffffff; stroke-width: 0.8"/>
     <use xlink:href="#m591108257b" x="283.715034" y="114.924083" style="fill: #1f77b4; stroke: #ffffff; stroke-width: 0.8"/>
     <use xlink:href="#m591108257b" x="235.947493" y="199.896726" style="fill: #1f77b4; stroke: #ffffff; stroke-width: 0.8"/>
     <use xlink:href="#m591108257b" x="204.808863" y="278.441178" style="fill: #1f77b4; stroke: #ffffff; stroke-width: 0.8"/>
     <use xlink:href="#m591108257b" x="178.246791" y="347.343345" style="fill: #1f77b4; stroke: #ffffff; stroke-width: 0.8"/>
     <use xlink:href="#m591108257b" x="168.899792" y="375.935401" style="fill: #1f77b4; stroke: #ffffff; stroke-width: 0.8"/>
     <use xlink:href="#m591108257b" x="146.431823" y="395.956536" style="fill: #1f77b4; stroke: #ffffff; stroke-width: 0.8"/>
     <use xlink:href="#m591108257b" x="131.795856" y="413.165337" style="fill: #1f77b4; stroke: #ffffff; stroke-width: 0.8"/>
     <use xlink:href="#m591108257b" x="132.057373" y="416.178552" style="fill: #1f77b4; stroke: #ffffff; stroke-width: 0.8"/>
     <use xlink:href="#m591108257b" x="115.47806" y="419.928329" style="fill: #1f77b4; stroke: #ffffff; stroke-width: 0.8"/>
     <use xlink:href="#m591108257b" x="100.76544" y="421.602337" style="fill: #1f77b4; stroke: #ffffff; stroke-width: 0.8"/>
     <use xlink:href="#m591108257b" x="130.472216" y="370.342314" style="fill: #1f77b4; stroke: #ffffff; stroke-width: 0.8"/>
     <use xlink:href="#m591108257b" x="205.957697" y="266.751778" style="fill: #1f77b4; stroke: #ffffff; stroke-width: 0.8"/>
     <use xlink:href="#m591108257b" x="327.332644" y="149.120761" style="fill: #1f77b4; stroke: #ffffff; stroke-width: 0.8"/>
     <use xlink:href="#m591108257b" x="350.721631" y="86.576799" style="fill: #1f77b4; stroke: #ffffff; stroke-width: 0.8"/>
     <use xlink:href="#m591108257b" x="345.74099" y="117.81519" style="fill: #1f77b4; stroke: #ffffff; stroke-width: 0.8"/>
     <use xlink:href="#m591108257b" x="264.88693" y="193.257585" style="fill: #1f77b4; stroke: #ffffff; stroke-width: 0.8"/>
     <use xlink:href="#m591108257b" x="269.804999" y="257.346671" style="fill: #1f77b4; stroke: #ffffff; stroke-width: 0.8"/>
     <use xlink:href="#m591108257b" x="240.659494" y="311.426036" style="fill: #1f77b4; stroke: #ffffff; stroke-width: 0.8"/>
     <use xlink:href="#m591108257b" x="200.564089" y="354.152094" style="fill: #1f77b4; stroke: #ffffff; stroke-width: 0.8"/>
     <use xlink:href="#m591108257b" x="189.464019" y="389.488425" style="fill: #1f77b4; stroke: #ffffff; stroke-width: 0.8"/>
     <use xlink:href="#m591108257b" x="183.632415" y="413.135551" style="fill: #1f77b4; stroke: #ffffff; stroke-width: 0.8"/>
     <use xlink:href="#m591108257b" x="137.317467" y="415.016572" style="fill: #1f77b4; stroke: #ffffff; stroke-width: 0.8"/>
     <use xlink:href="#m591108257b" x="128.89543" y="420.32374" style="fill: #1f77b4; stroke: #ffffff; stroke-width: 0.8"/>
     <use xlink:href="#m591108257b" x="110.361942" y="421.26425" style="fill: #1f77b4; stroke: #ffffff; stroke-width: 0.8"/>
     <use xlink:href="#m591108257b" x="104.818164" y="422.27194" style="fill: #1f77b4; stroke: #ffffff; stroke-width: 0.8"/>
     <use xlink:href="#m591108257b" x="155.961122" y="377.179998" style="fill: #1f77b4; stroke: #ffffff; stroke-width: 0.8"/>
     <use xlink:href="#m591108257b" x="213.701837" y="254.700532" style="fill: #1f77b4; stroke: #ffffff; stroke-width: 0.8"/>
     <use xlink:href="#m591108257b" x="305.496851" y="85.910422" style="fill: #1f77b4; stroke: #ffffff; stroke-width: 0.8"/>
     <use xlink:href="#m591108257b" x="273.175044" y="88.6525" style="fill: #1f77b4; stroke: #ffffff; stroke-width: 0.8"/>
     <use xlink:href="#m591108257b" x="301.355112" y="106.018991" style="fill: #1f77b4; stroke: #ffffff; stroke-width: 0.8"/>
     <use xlink:href="#m591108257b" x="276.477608" y="171.219503" style="fill: #1f77b4; stroke: #ffffff; stroke-width: 0.8"/>
     <use xlink:href="#m591108257b" x="249.353277" y="258.05196" style="fill: #1f77b4; stroke: #ffffff; stroke-width: 0.8"/>
     <use xlink:href="#m591108257b" x="208.34194" y="322.947797" style="fill: #1f77b4; stroke: #ffffff; stroke-width: 0.8"/>
     <use xlink:href="#m591108257b" x="163.188863" y="412.827006" style="fill: #1f77b4; stroke: #ffffff; stroke-width: 0.8"/>
     <use xlink:href="#m591108257b" x="134.954655" y="413.741032" style="fill: #1f77b4; stroke: #ffffff; stroke-width: 0.8"/>
     <use xlink:href="#m591108257b" x="141.072518" y="411.912981" style="fill: #1f77b4; stroke: #ffffff; stroke-width: 0.8"/>
     <use xlink:href="#m591108257b" x="126.860668" y="418.311162" style="fill: #1f77b4; stroke: #ffffff; stroke-width: 0.8"/>
     <use xlink:href="#m591108257b" x="122.204595" y="422.27194" style="fill: #1f77b4; stroke: #ffffff; stroke-width: 0.8"/>
     <use xlink:href="#m591108257b" x="108.101027" y="422.27194" style="fill: #1f77b4; stroke: #ffffff; stroke-width: 0.8"/>
     <use xlink:href="#m591108257b" x="93.104141" y="422.27194" style="fill: #1f77b4; stroke: #ffffff; stroke-width: 0.8"/>
    </g>
   </g>
   <g id="matplotlib.axis_1">
    <g id="xtick_1">
     <g id="line2d_1">
      <defs>
       <path id="m38b1699e41" d="M 0 0 
L 0 3.5 
" style="stroke: #000000; stroke-width: 0.8"/>
      </defs>
      <g>
       <use xlink:href="#m38b1699e41" x="50.14375" y="450.72" style="stroke: #000000; stroke-width: 0.8"/>
      </g>
     </g>
     <g id="text_1">
      <!-- 0.00 -->
      <g transform="translate(39.010937 465.318437) scale(0.1 -0.1)">
       <defs>
        <path id="DejaVuSans-30" d="M 2034 4250 
Q 1547 4250 1301 3770 
Q 1056 3291 1056 2328 
Q 1056 1369 1301 889 
Q 1547 409 2034 409 
Q 2525 409 2770 889 
Q 3016 1369 3016 2328 
Q 3016 3291 2770 3770 
Q 2525 4250 2034 4250 
z
M 2034 4750 
Q 2819 4750 3233 4129 
Q 3647 3509 3647 2328 
Q 3647 1150 3233 529 
Q 2819 -91 2034 -91 
Q 1250 -91 836 529 
Q 422 1150 422 2328 
Q 422 3509 836 4129 
Q 1250 4750 2034 4750 
z
" transform="scale(0.015625)"/>
        <path id="DejaVuSans-2e" d="M 684 794 
L 1344 794 
L 1344 0 
L 684 0 
L 684 794 
z
" transform="scale(0.015625)"/>
       </defs>
       <use xlink:href="#DejaVuSans-30"/>
       <use xlink:href="#DejaVuSans-2e" x="63.623047"/>
       <use xlink:href="#DejaVuSans-30" x="95.410156"/>
       <use xlink:href="#DejaVuSans-30" x="159.033203"/>
      </g>
     </g>
    </g>
    <g id="xtick_2">
     <g id="line2d_2">
      <g>
       <use xlink:href="#m38b1699e41" x="161.601467" y="450.72" style="stroke: #000000; stroke-width: 0.8"/>
      </g>
     </g>
     <g id="text_2">
      <!-- 0.04 -->
      <g transform="translate(150.468655 465.318437) scale(0.1 -0.1)">
       <defs>
        <path id="DejaVuSans-34" d="M 2419 4116 
L 825 1625 
L 2419 1625 
L 2419 4116 
z
M 2253 4666 
L 3047 4666 
L 3047 1625 
L 3713 1625 
L 3713 1100 
L 3047 1100 
L 3047 0 
L 2419 0 
L 2419 1100 
L 313 1100 
L 313 1709 
L 2253 4666 
z
" transform="scale(0.015625)"/>
       </defs>
       <use xlink:href="#DejaVuSans-30"/>
       <use xlink:href="#DejaVuSans-2e" x="63.623047"/>
       <use xlink:href="#DejaVuSans-30" x="95.410156"/>
       <use xlink:href="#DejaVuSans-34" x="159.033203"/>
      </g>
     </g>
    </g>
    <g id="xtick_3">
     <g id="line2d_3">
      <g>
       <use xlink:href="#m38b1699e41" x="273.059184" y="450.72" style="stroke: #000000; stroke-width: 0.8"/>
      </g>
     </g>
     <g id="text_3">
      <!-- 0.08 -->
      <g transform="translate(261.926372 465.318437) scale(0.1 -0.1)">
       <defs>
        <path id="DejaVuSans-38" d="M 2034 2216 
Q 1584 2216 1326 1975 
Q 1069 1734 1069 1313 
Q 1069 891 1326 650 
Q 1584 409 2034 409 
Q 2484 409 2743 651 
Q 3003 894 3003 1313 
Q 3003 1734 2745 1975 
Q 2488 2216 2034 2216 
z
M 1403 2484 
Q 997 2584 770 2862 
Q 544 3141 544 3541 
Q 544 4100 942 4425 
Q 1341 4750 2034 4750 
Q 2731 4750 3128 4425 
Q 3525 4100 3525 3541 
Q 3525 3141 3298 2862 
Q 3072 2584 2669 2484 
Q 3125 2378 3379 2068 
Q 3634 1759 3634 1313 
Q 3634 634 3220 271 
Q 2806 -91 2034 -91 
Q 1263 -91 848 271 
Q 434 634 434 1313 
Q 434 1759 690 2068 
Q 947 2378 1403 2484 
z
M 1172 3481 
Q 1172 3119 1398 2916 
Q 1625 2713 2034 2713 
Q 2441 2713 2670 2916 
Q 2900 3119 2900 3481 
Q 2900 3844 2670 4047 
Q 2441 4250 2034 4250 
Q 1625 4250 1398 4047 
Q 1172 3844 1172 3481 
z
" transform="scale(0.015625)"/>
       </defs>
       <use xlink:href="#DejaVuSans-30"/>
       <use xlink:href="#DejaVuSans-2e" x="63.623047"/>
       <use xlink:href="#DejaVuSans-30" x="95.410156"/>
       <use xlink:href="#DejaVuSans-38" x="159.033203"/>
      </g>
     </g>
    </g>
    <g id="xtick_4">
     <g id="line2d_4">
      <g>
       <use xlink:href="#m38b1699e41" x="384.516901" y="450.72" style="stroke: #000000; stroke-width: 0.8"/>
      </g>
     </g>
     <g id="text_4">
      <!-- 0.12 -->
      <g transform="translate(373.384089 465.318437) scale(0.1 -0.1)">
       <defs>
        <path id="DejaVuSans-31" d="M 794 531 
L 1825 531 
L 1825 4091 
L 703 3866 
L 703 4441 
L 1819 4666 
L 2450 4666 
L 2450 531 
L 3481 531 
L 3481 0 
L 794 0 
L 794 531 
z
" transform="scale(0.015625)"/>
        <path id="DejaVuSans-32" d="M 1228 531 
L 3431 531 
L 3431 0 
L 469 0 
L 469 531 
Q 828 903 1448 1529 
Q 2069 2156 2228 2338 
Q 2531 2678 2651 2914 
Q 2772 3150 2772 3378 
Q 2772 3750 2511 3984 
Q 2250 4219 1831 4219 
Q 1534 4219 1204 4116 
Q 875 4013 500 3803 
L 500 4441 
Q 881 4594 1212 4672 
Q 1544 4750 1819 4750 
Q 2544 4750 2975 4387 
Q 3406 4025 3406 3419 
Q 3406 3131 3298 2873 
Q 3191 2616 2906 2266 
Q 2828 2175 2409 1742 
Q 1991 1309 1228 531 
z
" transform="scale(0.015625)"/>
       </defs>
       <use xlink:href="#DejaVuSans-30"/>
       <use xlink:href="#DejaVuSans-2e" x="63.623047"/>
       <use xlink:href="#DejaVuSans-31" x="95.410156"/>
       <use xlink:href="#DejaVuSans-32" x="159.033203"/>
      </g>
     </g>
    </g>
    <g id="xtick_5">
     <g id="line2d_5">
      <g>
       <use xlink:href="#m38b1699e41" x="495.974618" y="450.72" style="stroke: #000000; stroke-width: 0.8"/>
      </g>
     </g>
     <g id="text_5">
      <!-- 0.16 -->
      <g transform="translate(484.841806 465.318437) scale(0.1 -0.1)">
       <defs>
        <path id="DejaVuSans-36" d="M 2113 2584 
Q 1688 2584 1439 2293 
Q 1191 2003 1191 1497 
Q 1191 994 1439 701 
Q 1688 409 2113 409 
Q 2538 409 2786 701 
Q 3034 994 3034 1497 
Q 3034 2003 2786 2293 
Q 2538 2584 2113 2584 
z
M 3366 4563 
L 3366 3988 
Q 3128 4100 2886 4159 
Q 2644 4219 2406 4219 
Q 1781 4219 1451 3797 
Q 1122 3375 1075 2522 
Q 1259 2794 1537 2939 
Q 1816 3084 2150 3084 
Q 2853 3084 3261 2657 
Q 3669 2231 3669 1497 
Q 3669 778 3244 343 
Q 2819 -91 2113 -91 
Q 1303 -91 875 529 
Q 447 1150 447 2328 
Q 447 3434 972 4092 
Q 1497 4750 2381 4750 
Q 2619 4750 2861 4703 
Q 3103 4656 3366 4563 
z
" transform="scale(0.015625)"/>
       </defs>
       <use xlink:href="#DejaVuSans-30"/>
       <use xlink:href="#DejaVuSans-2e" x="63.623047"/>
       <use xlink:href="#DejaVuSans-31" x="95.410156"/>
       <use xlink:href="#DejaVuSans-36" x="159.033203"/>
      </g>
     </g>
    </g>
    <g id="text_6">
     <!-- h01 -->
     <g transform="translate(263.8125 478.996562) scale(0.1 -0.1)">
      <defs>
       <path id="DejaVuSans-68" d="M 3513 2113 
L 3513 0 
L 2938 0 
L 2938 2094 
Q 2938 2591 2744 2837 
Q 2550 3084 2163 3084 
Q 1697 3084 1428 2787 
Q 1159 2491 1159 1978 
L 1159 0 
L 581 0 
L 581 4863 
L 1159 4863 
L 1159 2956 
Q 1366 3272 1645 3428 
Q 1925 3584 2291 3584 
Q 2894 3584 3203 3211 
Q 3513 2838 3513 2113 
z
" transform="scale(0.015625)"/>
      </defs>
      <use xlink:href="#DejaVuSans-68"/>
      <use xlink:href="#DejaVuSans-30" x="63.378906"/>
      <use xlink:href="#DejaVuSans-31" x="127.001953"/>
     </g>
    </g>
   </g>
   <g id="matplotlib.axis_2">
    <g id="ytick_1">
     <g id="line2d_6">
      <defs>
       <path id="ma70073d038" d="M 0 0 
L -3.5 0 
" style="stroke: #000000; stroke-width: 0.8"/>
      </defs>
      <g>
       <use xlink:href="#ma70073d038" x="50.14375" y="422.27194" style="stroke: #000000; stroke-width: 0.8"/>
      </g>
     </g>
     <g id="text_7">
      <!-- 0.00 -->
      <g transform="translate(20.878125 426.071159) scale(0.1 -0.1)">
       <use xlink:href="#DejaVuSans-30"/>
       <use xlink:href="#DejaVuSans-2e" x="63.623047"/>
       <use xlink:href="#DejaVuSans-30" x="95.410156"/>
       <use xlink:href="#DejaVuSans-30" x="159.033203"/>
      </g>
     </g>
    </g>
    <g id="ytick_2">
     <g id="line2d_7">
      <g>
       <use xlink:href="#ma70073d038" x="50.14375" y="334.98247" style="stroke: #000000; stroke-width: 0.8"/>
      </g>
     </g>
     <g id="text_8">
      <!-- 0.05 -->
      <g transform="translate(20.878125 338.781689) scale(0.1 -0.1)">
       <defs>
        <path id="DejaVuSans-35" d="M 691 4666 
L 3169 4666 
L 3169 4134 
L 1269 4134 
L 1269 2991 
Q 1406 3038 1543 3061 
Q 1681 3084 1819 3084 
Q 2600 3084 3056 2656 
Q 3513 2228 3513 1497 
Q 3513 744 3044 326 
Q 2575 -91 1722 -91 
Q 1428 -91 1123 -41 
Q 819 9 494 109 
L 494 744 
Q 775 591 1075 516 
Q 1375 441 1709 441 
Q 2250 441 2565 725 
Q 2881 1009 2881 1497 
Q 2881 1984 2565 2268 
Q 2250 2553 1709 2553 
Q 1456 2553 1204 2497 
Q 953 2441 691 2322 
L 691 4666 
z
" transform="scale(0.015625)"/>
       </defs>
       <use xlink:href="#DejaVuSans-30"/>
       <use xlink:href="#DejaVuSans-2e" x="63.623047"/>
       <use xlink:href="#DejaVuSans-30" x="95.410156"/>
       <use xlink:href="#DejaVuSans-35" x="159.033203"/>
      </g>
     </g>
    </g>
    <g id="ytick_3">
     <g id="line2d_8">
      <g>
       <use xlink:href="#ma70073d038" x="50.14375" y="247.693" style="stroke: #000000; stroke-width: 0.8"/>
      </g>
     </g>
     <g id="text_9">
      <!-- 0.10 -->
      <g transform="translate(20.878125 251.492219) scale(0.1 -0.1)">
       <use xlink:href="#DejaVuSans-30"/>
       <use xlink:href="#DejaVuSans-2e" x="63.623047"/>
       <use xlink:href="#DejaVuSans-31" x="95.410156"/>
       <use xlink:href="#DejaVuSans-30" x="159.033203"/>
      </g>
     </g>
    </g>
    <g id="ytick_4">
     <g id="line2d_9">
      <g>
       <use xlink:href="#ma70073d038" x="50.14375" y="160.40353" style="stroke: #000000; stroke-width: 0.8"/>
      </g>
     </g>
     <g id="text_10">
      <!-- 0.15 -->
      <g transform="translate(20.878125 164.202749) scale(0.1 -0.1)">
       <use xlink:href="#DejaVuSans-30"/>
       <use xlink:href="#DejaVuSans-2e" x="63.623047"/>
       <use xlink:href="#DejaVuSans-31" x="95.410156"/>
       <use xlink:href="#DejaVuSans-35" x="159.033203"/>
      </g>
     </g>
    </g>
    <g id="ytick_5">
     <g id="line2d_10">
      <g>
       <use xlink:href="#ma70073d038" x="50.14375" y="73.11406" style="stroke: #000000; stroke-width: 0.8"/>
      </g>
     </g>
     <g id="text_11">
      <!-- 0.20 -->
      <g transform="translate(20.878125 76.913279) scale(0.1 -0.1)">
       <use xlink:href="#DejaVuSans-30"/>
       <use xlink:href="#DejaVuSans-2e" x="63.623047"/>
       <use xlink:href="#DejaVuSans-32" x="95.410156"/>
       <use xlink:href="#DejaVuSans-30" x="159.033203"/>
      </g>
     </g>
    </g>
    <g id="text_12">
     <!-- ppss -->
     <g transform="translate(14.798437 240.517812) rotate(-90) scale(0.1 -0.1)">
      <defs>
       <path id="DejaVuSans-70" d="M 1159 525 
L 1159 -1331 
L 581 -1331 
L 581 3500 
L 1159 3500 
L 1159 2969 
Q 1341 3281 1617 3432 
Q 1894 3584 2278 3584 
Q 2916 3584 3314 3078 
Q 3713 2572 3713 1747 
Q 3713 922 3314 415 
Q 2916 -91 2278 -91 
Q 1894 -91 1617 61 
Q 1341 213 1159 525 
z
M 3116 1747 
Q 3116 2381 2855 2742 
Q 2594 3103 2138 3103 
Q 1681 3103 1420 2742 
Q 1159 2381 1159 1747 
Q 1159 1113 1420 752 
Q 1681 391 2138 391 
Q 2594 391 2855 752 
Q 3116 1113 3116 1747 
z
" transform="scale(0.015625)"/>
       <path id="DejaVuSans-73" d="M 2834 3397 
L 2834 2853 
Q 2591 2978 2328 3040 
Q 2066 3103 1784 3103 
Q 1356 3103 1142 2972 
Q 928 2841 928 2578 
Q 928 2378 1081 2264 
Q 1234 2150 1697 2047 
L 1894 2003 
Q 2506 1872 2764 1633 
Q 3022 1394 3022 966 
Q 3022 478 2636 193 
Q 2250 -91 1575 -91 
Q 1294 -91 989 -36 
Q 684 19 347 128 
L 347 722 
Q 666 556 975 473 
Q 1284 391 1588 391 
Q 1994 391 2212 530 
Q 2431 669 2431 922 
Q 2431 1156 2273 1281 
Q 2116 1406 1581 1522 
L 1381 1569 
Q 847 1681 609 1914 
Q 372 2147 372 2553 
Q 372 3047 722 3315 
Q 1072 3584 1716 3584 
Q 2034 3584 2315 3537 
Q 2597 3491 2834 3397 
z
" transform="scale(0.015625)"/>
      </defs>
      <use xlink:href="#DejaVuSans-70"/>
      <use xlink:href="#DejaVuSans-70" x="63.476562"/>
      <use xlink:href="#DejaVuSans-73" x="126.953125"/>
      <use xlink:href="#DejaVuSans-73" x="179.052734"/>
     </g>
    </g>
   </g>
   <g id="line2d_11">
    <path d="M 93.104141 430.56 
L 96.985234 426.487273 
L 100.866327 422.414545 
L 104.74742 418.341818 
L 108.628513 414.269091 
L 112.509606 410.196364 
L 116.390699 406.123636 
L 120.271792 402.050909 
L 124.152885 397.978182 
L 128.033978 393.905455 
L 131.915071 389.832727 
L 135.796163 385.76 
L 139.677256 381.687273 
L 143.558349 377.614545 
L 147.439442 373.541818 
L 151.320535 369.469091 
L 155.201628 365.396364 
L 159.082721 361.323636 
L 162.963814 357.250909 
L 166.844907 353.178182 
L 170.726 349.105455 
L 174.607093 345.032727 
L 178.488186 340.96 
L 182.369278 336.887273 
L 186.250371 332.814545 
L 190.131464 328.741818 
L 194.012557 324.669091 
L 197.89365 320.596364 
L 201.774743 316.523636 
L 205.655836 312.450909 
L 209.536929 308.378182 
L 213.418022 304.305455 
L 217.299115 300.232727 
L 221.180208 296.16 
L 225.061301 292.087273 
L 228.942393 288.014545 
L 232.823486 283.941818 
L 236.704579 279.869091 
L 240.585672 275.796364 
L 244.466765 271.723636 
L 248.347858 267.650909 
L 252.228951 263.578182 
L 256.110044 259.505455 
L 259.991137 255.432727 
L 263.87223 251.36 
L 267.753323 247.287273 
L 271.634415 243.214545 
L 275.515508 239.141818 
L 279.396601 235.069091 
L 283.277694 230.996364 
L 287.158787 226.923636 
L 291.03988 222.850909 
L 294.920973 218.778182 
L 298.802066 214.705455 
L 302.683159 210.632727 
L 306.564252 206.56 
L 310.445345 202.487273 
L 314.326438 198.414545 
L 318.20753 194.341818 
L 322.088623 190.269091 
L 325.969716 186.196364 
L 329.850809 182.123636 
L 333.731902 178.050909 
L 337.612995 173.978182 
L 341.494088 169.905455 
L 345.375181 165.832727 
L 349.256274 161.76 
L 353.137367 157.687273 
L 357.01846 153.614545 
L 360.899553 149.541818 
L 364.780645 145.469091 
L 368.661738 141.396364 
L 372.542831 137.323636 
L 376.423924 133.250909 
L 380.305017 129.178182 
L 384.18611 125.105455 
L 388.067203 121.032727 
L 391.948296 116.96 
L 395.829389 112.887273 
L 399.710482 108.814545 
L 403.591575 104.741818 
L 407.472668 100.669091 
L 411.35376 96.596364 
L 415.234853 92.523636 
L 419.115946 88.450909 
L 422.997039 84.378182 
L 426.878132 80.305455 
L 430.759225 76.232727 
L 434.640318 72.16 
L 438.521411 68.087273 
L 442.402504 64.014545 
L 446.283597 59.941818 
L 450.16469 55.869091 
L 454.045783 51.796364 
L 457.926875 47.723636 
L 461.807968 43.650909 
L 465.689061 39.578182 
L 469.570154 35.505455 
L 473.451247 31.432727 
L 477.33234 27.36 
" clip-path="url(#pd173b318ef)" style="fill: none; stroke-dasharray: 7.4,3.2; stroke-dashoffset: 0; stroke: #ff0000; stroke-width: 2"/>
   </g>
   <g id="patch_3">
    <path d="M 50.14375 450.72 
L 50.14375 7.2 
" style="fill: none; stroke: #000000; stroke-width: 0.8; stroke-linejoin: miter; stroke-linecap: square"/>
   </g>
   <g id="patch_4">
    <path d="M 50.14375 450.72 
L 496.54375 450.72 
" style="fill: none; stroke: #000000; stroke-width: 0.8; stroke-linejoin: miter; stroke-linecap: square"/>
   </g>
  </g>
 </g>
 <defs>
  <clipPath id="pd173b318ef">
   <rect x="50.14375" y="7.2" width="446.4" height="443.52"/>
  </clipPath>
 </defs>
</svg>
